<svg width="60" height="60" viewBox="0 0 60 60" fill="none" xmlns="http://www.w3.org/2000/svg">
<path d="M22.83 29.105C23.3527 29.105 23.8755 29.1039 24.3983 29.1056C25.1238 29.1078 25.4755 29.4489 25.4783 30.1717C25.4827 31.2372 25.4827 32.3028 25.4711 33.3683C25.4677 33.6717 25.4466 33.9806 25.3822 34.2756C25.2566 34.8539 24.8372 35.1794 24.2444 35.2094C24.0677 35.2183 23.8911 35.1989 23.7155 35.2511C23.3833 35.35 23.21 35.6717 23.3155 36.0144C23.4288 36.3828 23.7677 36.5983 24.0844 36.4467C25.1416 35.9406 26.0161 35.2528 26.2772 34.0233C26.3638 33.6144 26.3244 33.1961 26.2961 32.7844C26.2511 32.125 26.3166 31.4678 26.3077 30.8094C26.3022 30.3861 26.3216 29.9633 26.2538 29.5417C26.17 29.0178 25.9027 28.6583 25.3966 28.4756C24.9327 28.3078 24.4433 28.3467 23.9672 28.2861C23.4161 28.2161 23.26 28.0911 23.2883 27.5461C23.365 26.0778 23.5855 24.6456 24.4511 23.3956C24.8038 22.8861 25.24 22.4622 25.7616 22.1306C26.2494 21.8206 26.5944 21.8783 26.9422 22.34C27.7366 23.3944 28.5194 24.4578 29.3061 25.5183C29.3883 25.6289 29.4616 25.7461 29.5455 25.8556C29.8855 26.2978 30.1272 26.2989 30.4711 25.8506C30.7711 25.4594 31.0622 25.0622 31.3561 24.6667C31.9438 23.8756 32.5305 23.0844 33.1172 22.2928C33.4361 21.8628 33.7672 21.7739 34.25 22.0072C35.38 22.5522 36.02 23.505 36.4333 24.6456C36.7711 25.5789 36.8711 26.56 37.0211 27.5306C37.1044 28.0689 36.8566 28.4761 36.4894 28.8444C35.9522 29.3828 35.8588 30.1756 36.2311 30.8322C36.5683 31.4272 37.3211 31.7683 37.9727 31.6194C38.6872 31.4561 39.1394 31.0167 39.2933 30.3039C39.4416 29.6156 39.13 29.0739 38.6088 28.6828C38.125 28.3194 37.9538 27.8556 37.9094 27.2883C37.7883 25.7333 37.5155 24.2211 36.5922 22.905C36.4972 22.7694 36.4383 22.6228 36.555 22.4689C36.6888 22.2922 36.8788 22.3244 37.0427 22.3828C37.9166 22.6939 38.7683 23.055 39.5561 23.5528C41.4672 24.7594 42.8038 26.4467 43.7388 28.485C44.5538 30.2611 45.1011 32.1383 45.8466 33.94C46.3472 35.15 46.9433 36.3022 47.8761 37.2433C48.6822 38.0567 49.6427 38.6239 50.7472 38.9322C52.1116 39.3128 53.3338 39.9533 54.3333 40.9628C55.535 42.1761 56.2355 43.6539 56.5044 45.3356C56.9772 48.2956 56.3422 51.0394 54.7705 53.5556C53.4438 55.6783 51.4705 56.9061 49.0172 57.3283C47.5566 57.5794 46.1472 57.3261 44.7666 56.7828C42.8655 56.0344 40.8833 55.5689 38.8738 55.21C37.3816 54.9433 35.8788 54.7644 34.3705 54.6372C32.5222 54.4806 30.6683 54.4817 28.8155 54.51C26.6888 54.5428 24.5733 54.7122 22.4672 55.0228C19.9777 55.39 17.5422 55.9639 15.1716 56.8072C14.1711 57.1633 13.1405 57.385 12.0827 57.3928C10.25 57.4056 8.59384 56.8522 7.15773 55.6928C5.47606 54.335 4.4894 52.5356 3.87717 50.5022C3.49495 49.2311 3.29051 47.935 3.33162 46.6017C3.39273 44.635 4.08662 42.9183 5.33217 41.4111C5.98606 40.62 6.73551 39.9489 7.67773 39.5094C8.03828 39.3417 8.41551 39.2378 8.79551 39.135C11.015 38.5339 12.5705 37.1283 13.6422 35.135C14.3322 33.8522 14.7455 32.4611 15.235 31.0994C15.7927 29.5494 16.3894 28.0206 17.2972 26.63C18.5922 24.6461 20.3944 23.3289 22.5988 22.5261C22.8116 22.4489 23.0277 22.3806 23.24 22.3017C23.4127 22.2372 23.575 22.2372 23.6961 22.3889C23.8233 22.5483 23.7966 22.7222 23.69 22.8828C23.3616 23.3778 23.0933 23.9022 22.8855 24.4589C22.5588 25.3328 22.4 26.24 22.3422 27.1678C22.3366 27.2561 22.3427 27.3456 22.335 27.4339C22.2816 28.0667 22.0038 28.3239 21.3661 28.3406C21.1011 28.3472 20.8366 28.3333 20.5705 28.3833C19.7083 28.5461 19.355 28.8917 19.3355 29.7667C19.305 31.1472 19.3094 32.5289 19.3366 33.9094C19.3477 34.4811 19.6655 34.9567 20.0211 35.3867C20.2977 35.7217 20.6127 36.0222 20.9961 36.2394C21.2033 36.3567 21.4161 36.4528 21.6627 36.4556C22.0361 36.4594 22.2155 36.3294 22.2772 35.9983C22.3505 35.6011 22.2305 35.3744 21.8727 35.2611C21.5538 35.16 21.2283 35.0806 20.9116 34.9733C20.3733 34.7906 20.1544 34.5044 20.15 33.945C20.1394 32.6628 20.1361 31.38 20.1438 30.0978C20.1477 29.4633 20.5111 29.1128 21.1422 29.1061C21.705 29.1006 22.2672 29.105 22.83 29.105ZM36.8938 48.0267C36.2961 47.0072 35.6677 45.9517 35.0594 44.885C34.9288 44.6567 34.78 44.5733 34.5366 44.6356C34.2322 44.7133 33.9305 44.8067 33.6222 44.8672C33.3455 44.9217 33.2655 45.1028 33.2411 45.3456C33.0977 46.7856 33.0388 48.23 32.9994 49.6756C32.9883 50.0844 33.22 50.2939 33.6366 50.305C33.8288 50.31 33.8977 50.2472 33.8938 50.0517C33.8816 49.4306 33.8838 48.8094 33.8805 48.1878C33.8794 47.9789 33.8805 47.7694 33.8805 47.5311C34.0266 47.6139 34.0455 47.7178 34.0911 47.8C34.6088 48.7372 35.2194 49.6033 36.0105 50.3333C36.0961 50.4122 36.1722 50.5189 36.3122 50.4794C36.8811 50.3211 37.3388 49.9917 37.7088 49.5406C37.765 49.4717 37.7838 49.3539 37.7827 49.2594C37.765 47.8406 37.8661 46.425 37.9188 45.0083C37.9261 44.8067 37.8305 44.7083 37.6522 44.6911C37.4672 44.6728 37.2811 44.6672 37.095 44.72C36.9238 44.7683 36.8816 44.845 36.885 45.0356C36.9033 46.0406 36.8938 47.0444 36.8938 48.0267ZM10.1472 47.5411C10.1622 48.0083 10.1361 48.7361 10.1983 49.4639C10.2444 50.0039 10.2744 50.0717 10.81 50.1817C10.8772 50.1956 10.9438 50.2117 11.0116 50.2239C11.9644 50.3939 12.8783 50.31 13.7022 49.7617C14.2377 49.405 14.2733 48.7678 13.7877 48.3628C13.6394 48.2389 13.6338 48.1822 13.7777 48.0589C14.0933 47.7883 14.3861 47.49 14.5316 47.0894C14.7777 46.4106 14.7377 45.5306 14.0438 45.1122C12.9238 44.4367 11.7566 44.5083 10.5827 44.9144C10.2872 45.0167 10.1466 45.2972 10.1472 45.6261C10.1488 46.1778 10.1472 46.7289 10.1472 47.5411ZM40.6388 44.6244C40.57 44.6244 40.5011 44.6244 40.4322 44.6244C39.8133 44.6272 39.7155 44.7117 39.6416 45.3156C39.6333 45.3839 39.6361 45.4533 39.6333 45.5222C39.5961 46.3172 39.5566 47.1122 39.5227 47.9072C39.4966 48.5261 39.4644 49.145 39.4611 49.7644C39.4594 50.16 39.7788 50.3661 40.24 50.3056C40.485 50.2733 40.5355 50.1456 40.4705 49.7211C40.4688 49.7117 40.4683 49.7017 40.4666 49.6917C40.4277 49.4628 40.4572 49.3394 40.7566 49.3467C41.5405 49.365 42.3066 49.2544 43.0016 48.8489C43.7455 48.415 44.1383 47.77 44.1127 46.9061C44.0866 46.0328 43.7111 45.3694 42.895 44.9717C42.1722 44.6194 41.395 44.7078 40.6388 44.6244ZM20.3322 49.6789C20.3277 49.6144 20.3305 49.5644 20.3205 49.5167C20.0261 48.0906 19.6033 46.6994 19.1716 45.3106C18.9855 44.7111 18.4983 44.63 17.9855 44.5744C17.595 44.5322 17.5461 44.9067 17.3494 45.1006C17.3288 45.1206 17.3177 45.15 17.3016 45.175C16.4944 46.4583 15.9516 47.8617 15.4233 49.2733C15.3155 49.5617 15.4211 49.6928 15.6616 49.7956C16.0155 49.9472 16.3844 50.0489 16.7561 50.1439C17.4894 50.3306 17.4944 50.3344 17.8344 49.6578C17.9083 49.5106 17.9916 49.4572 18.1522 49.4694C18.5244 49.4972 18.8977 49.52 19.2711 49.5233C19.4555 49.525 19.5633 49.5522 19.5783 49.7689C19.5911 49.9483 19.6916 50.1067 19.9077 50.0472C20.1038 49.9944 20.3688 49.9861 20.3322 49.6789ZM31.6944 49.7272C31.6855 49.6611 31.6827 49.6217 31.675 49.5833C31.3883 48.1439 30.9455 46.7467 30.5283 45.3417C30.3444 44.7222 29.8583 44.6372 29.3333 44.5778C28.9344 44.5322 28.8911 44.9078 28.6961 45.1028C28.655 45.1439 28.6283 45.1994 28.5972 45.2494C27.7922 46.5361 27.26 47.9467 26.7366 49.3606C26.6722 49.5344 26.7344 49.6594 26.9072 49.745C27.2905 49.9344 27.6994 50.04 28.11 50.1433C28.8338 50.3256 28.8383 50.33 29.1672 49.6689C29.2455 49.5111 29.3411 49.4556 29.5122 49.4694C29.855 49.4972 30.2 49.5261 30.5433 49.5211C30.7761 49.5178 30.915 49.5611 30.9388 49.8244C30.9538 49.9889 31.0711 50.1078 31.2494 50.0506C31.4327 49.9922 31.6738 49.9794 31.6944 49.7272ZM47.0916 50.3011C47.2177 50.3256 47.2694 50.2356 47.3222 50.1522C48.2105 48.7561 49.0744 47.3467 49.7472 45.8289C49.8361 45.6289 49.8061 45.5133 49.6272 45.3856C49.1016 45.0111 48.5155 44.8089 47.8872 44.6961C47.68 44.6589 47.5494 44.7061 47.4577 44.895C47.2983 45.2228 47.1222 45.5422 46.9677 45.8722C46.8733 46.0733 46.8138 46.1428 46.6533 45.9094C46.3916 45.5289 46.1022 45.1667 45.8144 44.8044C45.6183 44.5578 45.4933 44.5594 45.19 44.7811C44.845 45.0339 44.8177 45.1156 45.0033 45.3961C45.3572 45.9306 45.7566 46.4306 46.1711 46.9178C46.3222 47.0961 46.3461 47.2372 46.2416 47.4444C45.9138 48.095 45.6144 48.76 45.2811 49.4078C45.1744 49.6144 45.2383 49.7178 45.4016 49.8128C45.9238 50.1178 46.515 50.1867 47.0916 50.3011ZM21.6316 48.3889C21.6316 48.7433 21.6316 49.0983 21.6316 49.4528C21.6316 49.9411 21.7266 50.0756 22.2088 50.1872C23.1838 50.4117 24.1666 50.2889 25.1466 50.2289C25.3144 50.2183 25.4038 50.0922 25.4177 49.9272C25.4277 49.81 25.4183 49.6906 25.4266 49.5728C25.4416 49.3683 25.3511 49.2883 25.1488 49.2939C24.8338 49.3028 24.5183 49.2917 24.2033 49.2978C24.0561 49.3006 23.9872 49.2667 24.0116 49.0972C24.1733 47.9806 24.325 46.8622 24.4861 45.745C24.5483 45.3128 24.5005 45.1733 24.1216 44.945C23.6772 44.6772 23.1822 44.6156 22.6744 44.6189C22.1572 44.6228 21.98 44.75 21.8666 45.2494C21.6311 46.2833 21.6483 47.3378 21.6316 48.3889Z" fill="#87D5CA"/>
<path d="M30.1143 19.5967C27.9087 19.6061 26.4943 18.6811 25.6265 16.945C25.2048 16.1011 24.7498 15.305 24.0971 14.6133C23.2704 13.7378 23.0665 12.6444 23.2787 11.5028C23.5004 10.3094 23.7104 9.12666 23.6393 7.90333C23.5443 6.26777 24.2971 5.04889 25.5987 4.12777C25.7993 3.98555 26.0065 3.84944 26.2215 3.73C26.5721 3.53555 26.9104 3.36055 27.1187 2.96777C27.3204 2.58666 27.7187 2.51333 28.1282 2.61444C28.2987 2.65666 28.4715 2.71555 28.6248 2.8C29.1721 3.10111 29.7921 3.13611 30.3776 3.29444C30.6115 3.35777 30.8465 3.30777 31.0304 3.11333C31.2148 2.91833 31.4326 2.98944 31.6348 3.07055C32.5271 3.42833 33.3548 3.90055 34.1071 4.50166C34.5537 4.85888 34.9737 5.24555 35.3821 5.64611C35.7776 6.03388 35.9626 6.49277 35.9687 7.04722C35.9743 7.54111 35.9054 8.03 35.9037 8.52222C35.9015 9.27777 36.0626 9.97277 36.5137 10.6078C36.8782 11.1206 36.8859 11.7406 36.8376 12.3461C36.8015 12.7983 36.6909 13.2383 36.5182 13.66C36.3248 14.1322 36.0515 14.5467 35.6582 14.88C35.1315 15.3267 34.7393 15.8667 34.4648 16.5083C33.9676 17.6722 33.2365 18.6367 32.0404 19.1783C31.3526 19.4906 30.6354 19.6178 30.1143 19.5967Z" fill="#87D5CA"/>
<path d="M50.0571 15.185C50.0888 17.0294 49.8199 18.7311 49.0371 20.3161C48.3421 21.7233 47.4538 22.9889 45.9949 23.7061C44.6888 24.3483 43.4427 24.1522 42.3238 23.2489C41.1177 22.275 40.4904 20.9378 40.1838 19.4656C39.5721 16.5328 39.9104 13.7067 41.3516 11.0533C41.9032 10.0372 42.6321 9.16222 43.6482 8.56611C45.1093 7.70888 46.7138 7.90444 47.9299 9.09111C49.0827 10.2161 49.6777 11.6167 49.9282 13.1839C50.0388 13.8756 50.0782 14.5728 50.0571 15.185Z" fill="#87D5CA"/>
<path d="M10.1572 29.7094C10.1416 31.29 9.94828 32.7261 9.31106 34.07C8.91939 34.8955 8.4255 35.6505 7.68995 36.2211C6.3655 37.2478 4.72773 37.2761 3.40384 36.2455C1.77717 34.9794 0.818837 33.2794 0.324393 31.3022C0.101615 30.4111 0.0249486 29.5022 0.00550416 28.5828C-0.0228292 27.2667 0.0593931 25.9689 0.497726 24.7172C0.842726 23.7311 1.33606 22.8322 2.09106 22.0872C3.50384 20.6922 5.45717 20.595 6.97161 21.8794C8.33773 23.0383 9.17773 24.5344 9.66828 26.2361C10.0044 27.405 10.1438 28.6044 10.1572 29.7094Z" fill="#87D5CA"/>
<path d="M59.9956 28.4955C60.0428 30.2894 59.705 31.9828 58.8611 33.555C58.2178 34.7533 57.3761 35.7855 56.1939 36.4983C54.8511 37.3078 53.18 37.0989 52.0511 36.0128C50.97 34.9722 50.4094 33.6622 50.1139 32.2322C49.5867 29.6828 49.8272 27.1955 50.8828 24.8089C51.4828 23.4522 52.3244 22.2772 53.6378 21.5039C55.1933 20.5878 57.0806 20.9366 58.2089 22.3472C59.1856 23.5678 59.6944 24.9722 59.8822 26.5105C59.9639 27.1766 60.0083 27.8428 59.9956 28.4955Z" fill="#87D5CA"/>
<path d="M9.95775 15.1517C9.92775 13.5878 10.2033 12.0211 10.985 10.5728C11.43 9.74777 12.01 9.03166 12.8261 8.53555C14.0711 7.77833 15.6278 7.90055 16.7978 8.85499C18.3166 10.0944 19.1822 11.7355 19.6789 13.5955C20.0061 14.8205 20.1378 16.0728 20.0839 17.3372C20.015 18.96 19.6955 20.5211 18.8028 21.9167C18.1311 22.9667 17.2689 23.765 15.9861 23.9783C14.9166 24.1561 13.9805 23.8205 13.14 23.185C12.1461 22.4339 11.49 21.4172 10.9916 20.2989C10.2716 18.685 9.93053 16.9878 9.95775 15.1517Z" fill="#87D5CA"/>
<path d="M11.6432 46.7561C11.9493 46.75 12.2554 46.7678 12.5398 46.8861C12.8687 47.0222 12.8882 47.2733 12.5965 47.4817C12.1626 47.7911 11.6698 47.8933 11.1459 47.8806C11.0621 47.8783 11.0009 47.8589 10.9576 47.7739C10.6921 47.2539 10.9809 46.7572 11.5548 46.7561C11.5843 46.7556 11.6137 46.7556 11.6432 46.7561Z" fill="#87D5CA"/>
<path d="M12.0233 48.6478C12.3705 48.6489 12.7061 48.7122 13.0266 48.8466C13.1488 48.8983 13.2672 48.9772 13.2577 49.1216C13.2494 49.2466 13.1144 49.2789 13.0138 49.3033C12.4783 49.4339 11.9394 49.5444 11.3866 49.4122C11.3016 49.3916 11.2199 49.3555 11.1394 49.32C11.0238 49.2683 10.9377 49.1789 10.9405 49.0511C10.9433 48.9216 11.0394 48.84 11.1572 48.7961C11.4361 48.6922 11.7255 48.645 12.0233 48.6478Z" fill="#87D5CA"/>
<path d="M40.3389 48.0078C40.3389 47.9389 40.3378 47.87 40.3389 47.8011C40.3505 47.2111 40.3972 47.1456 40.8 47.1556C41.5772 47.1739 41.9511 47.4278 41.9483 47.9206C41.9467 48.2272 41.7522 48.3839 41.5144 48.4944C41.215 48.6339 40.8894 48.6517 40.5617 48.6461C40.4039 48.6433 40.3555 48.5472 40.3461 48.4206C40.3361 48.2833 40.3439 48.1456 40.3439 48.0078C40.3422 48.0078 40.3405 48.0078 40.3389 48.0078Z" fill="#87D5CA"/>
<path d="M18.886 47.1239C19.0454 47.6078 19.1799 48.0072 19.3071 48.4089C19.3521 48.5516 19.3315 48.6411 19.1388 48.6583C18.8749 48.6816 18.521 48.8111 18.3765 48.6566C18.2354 48.5061 18.4949 48.2061 18.5704 47.97C18.6538 47.7094 18.7604 47.4566 18.886 47.1239Z" fill="#87D5CA"/>
<path d="M30.2712 47.2328C30.4028 47.6522 30.5345 48.0711 30.6667 48.4906C30.6962 48.5839 30.675 48.6345 30.5662 48.6506C30.265 48.695 29.9639 48.71 29.6267 48.6989C29.8212 48.1939 30.0056 47.7145 30.1895 47.2356C30.2167 47.2345 30.2439 47.2333 30.2712 47.2328Z" fill="#87D5CA"/>
</svg>
