<?xml version="1.0" encoding="utf-8"?>
<!-- Generator: Adobe Illustrator 28.0.0, SVG Export Plug-In . SVG Version: 6.00 Build 0)  -->
<svg version="1.1" id="Capa_1" xmlns="http://www.w3.org/2000/svg" xmlns:xlink="http://www.w3.org/1999/xlink" x="0px" y="0px"
	 viewBox="0 0 1033.47 47.73" style="enable-background:new 0 0 1033.47 47.73;" xml:space="preserve">
<style type="text/css">
	.st0{fill:#F4F4F4;}
</style>
<path class="st0" d="M490.74,47.73c8.1-0.5,16.21-0.83,24.29-1.52c23.48-1.99,46.98-3.77,70.41-6.28
	c47.13-5.06,93.45-14.96,139.89-24.08c28.77-5.64,57.83-9.38,87.02-12.1c28.75-2.68,57.55-4.1,86.42-3.31
	c34.66,0.95,69.03,4.3,102.24,14.96c10.2,3.28,19.97,7.89,29.94,11.88c0.98,0.39,1.98,0.72,2.98,1.08c0,6.46,0,12.92,0,19.37
	C852.87,47.73,671.8,47.73,490.74,47.73z"/>
<path class="st0" d="M0,37.69c12.82-5.51,25.45-11.52,38.49-16.43C76.72,6.85,116.46,2.92,157.03,5.05
	c49.8,2.6,98.26,12.84,146.45,24.89c28.11,7.03,56.64,11.67,85.5,14.15c15.25,1.31,30.55,2.03,45.82,3.05
	c1.17,0.08,2.32,0.39,3.49,0.59c-146.1,0-292.19,0-438.29,0C0,44.38,0,41.03,0,37.69z"/>
</svg>
