<?xml version="1.0" encoding="utf-8"?>
<!-- Generator: Adobe Illustrator 28.0.0, SVG Export Plug-In . SVG Version: 6.00 Build 0)  -->
<svg version="1.1" id="Capa_1" xmlns="http://www.w3.org/2000/svg" xmlns:xlink="http://www.w3.org/1999/xlink" x="0px" y="0px"
	 viewBox="0 0 512 512" style="enable-background:new 0 0 512 512;" xml:space="preserve">
<style type="text/css">
	.st0{fill:#FFFFFF;}
</style>
<path class="st0" d="M482,365.7c-2.89,6.65-4.81,13.97-8.85,19.83c-9.05,13.12-22.37,18.79-38.23,18.78
	c-49.05-0.03-98.09-0.01-147.14-0.01c-69.9,0-139.8,0.02-209.69-0.01c-22.49-0.01-40.58-13.35-45.78-33.9
	c-0.99-3.93-1.34-8.11-1.35-12.18c-0.08-67.84-0.07-135.68-0.05-203.53c0.01-25.81,19.16-45.4,44.97-46.08
	c0.88-0.02,1.76-0.01,2.64-0.01c118.65,0,237.3,0.02,355.95-0.03c16.02-0.01,29.51,5.53,38.67,18.79
	c4.04,5.85,5.97,13.17,8.85,19.83C482,220.02,482,292.86,482,365.7z M88.86,138.87c1.32,1.47,2.06,2.37,2.87,3.18
	c52.72,52.74,105.43,105.47,158.16,158.19c5.11,5.11,7.94,5.14,12.98,0.1c52.74-52.71,105.46-105.44,158.17-158.17
	c0.88-0.88,1.64-1.86,2.9-3.3C312.08,138.87,200.93,138.87,88.86,138.87z M98.27,374.02c105.22,0,211.12,0,316.37,0
	c-30.33-30.32-60.86-60.85-91.8-91.79c-0.54,0.66-1.46,2.01-2.6,3.15c-12.23,12.28-24.42,24.59-36.76,36.75
	c-16.19,15.95-37.88,15.95-54.07,0c-12.44-12.27-24.73-24.7-37.09-37.05c-1.1-1.1-2.27-2.13-2.63-2.46
	C158.96,313.34,128.51,343.79,98.27,374.02z M62.1,364.53c34.98-34.98,69.86-69.86,104.19-104.19
	c-34.86-34.87-70.09-70.1-105.09-105.1C59.83,163.06,60.63,360.6,62.1,364.53z M347.14,259.7c34.55,34.55,69.41,69.42,104.95,104.96
	c0-70.01,0-139.99,0-209.91C416.63,190.21,381.4,225.45,347.14,259.7z"/>
</svg>
