<?xml version="1.0" encoding="utf-8"?>
<!-- Generator: Adobe Illustrator 28.0.0, SVG Export Plug-In . SVG Version: 6.00 Build 0)  -->
<svg version="1.1" id="Capa_1" xmlns="http://www.w3.org/2000/svg" xmlns:xlink="http://www.w3.org/1999/xlink" x="0px" y="0px"
	 viewBox="0 0 512 512" style="enable-background:new 0 0 512 512;" xml:space="preserve">
<style type="text/css">
	.st0{fill:#FFFFFF;}
</style>
<path class="st0" d="M394.61,484.95c-31.24-1-59.94-11.3-87.61-24.78c-61.99-30.2-114.38-73.11-160.59-123.75
	c-40.35-44.22-74.27-92.81-96.79-148.71c-8.88-22.04-15.48-44.68-17.01-68.56c-1.34-20.85,1.8-40.05,19.04-54.53
	C63.26,54.9,73.74,43.63,86.09,35c17.08-11.93,35.16-11.04,51.58,1.88c22.71,17.89,38.94,41,49.2,67.96
	c5.96,15.66,3.05,30.57-8.12,43.24c-6.29,7.13-12.92,14.09-20.17,20.21c-9.03,7.62-11.38,17.04-6.93,26.97
	c5.95,13.28,12.33,26.76,20.9,38.4c31.77,43.15,68.43,81.8,111.69,113.67c9.14,6.73,20.07,11.28,30.65,15.72
	c8.58,3.6,16.51,0.84,23.21-5.82c6.57-6.53,13.3-12.94,20.4-18.89c14.31-11.98,30.5-14.65,47.63-7.25
	c24.49,10.59,45.63,26.04,62.06,47.17c14.84,19.09,15.79,38.57,0.86,57.41c-11.59,14.63-25.36,27.71-39.29,40.22
	C420.17,484.51,407.23,485.23,394.61,484.95z"/>
<path class="st0" d="M246.58,84.07c0-5.27,0-11.16,0-17.04c98.54-7.53,202.34,81.91,197.38,197.68c-6.01,0-12.06,0-17.6,0
	C416.79,154.67,357.44,94.76,246.58,84.07z"/>
<path class="st0" d="M247.15,138.24c0-6.8,0-12.65,0-18.49c73.89-6.84,149.13,62.91,143.94,143.62c-6.03,0-12.08,0-18.83,0
	c-0.38-34.58-11.63-64.6-36.09-89.08C311.83,149.94,281.96,138.87,247.15,138.24z"/>
<path class="st0" d="M248.27,191.37c0-6.25,0-12.12,0-17.96c40.94-10.81,91.53,38.44,90.12,88.28c-6.22,0-12.47,0-19.09,0
	C315.36,218.98,292.27,195.18,248.27,191.37z"/>
</svg>
