<svg xmlns="http://www.w3.org/2000/svg" xmlns:xlink="http://www.w3.org/1999/xlink" width="100" zoomAndPan="magnify" viewBox="0 0 75 74.999997" height="100" preserveAspectRatio="xMidYMid meet" version="1.0"><defs><clipPath id="9df9f8e9ea"><path d="M 5.332031 12.347656 L 69.832031 12.347656 L 69.832031 62.597656 L 5.332031 62.597656 Z M 5.332031 12.347656 " clip-rule="nonzero"/></clipPath></defs><g clip-path="url(#9df9f8e9ea)"><path fill="#ffffff" d="M 21.023438 37.640625 L 30.632812 37.640625 L 30.632812 62.644531 L 5.34375 62.644531 L 5.34375 41.566406 C 5.34375 31.253906 7.855469 23.863281 12.871094 19.386719 C 17.886719 14.90625 25.039062 12.5625 34.304688 12.347656 L 34.433594 22.492188 C 23.382812 23.652344 20.191406 28.484375 21.023438 37.640625 Z M 56.375 37.640625 L 65.980469 37.640625 L 65.980469 62.644531 L 40.691406 62.644531 L 40.691406 41.566406 C 40.691406 31.253906 43.207031 23.863281 48.222656 19.386719 C 53.238281 14.90625 60.386719 12.5625 69.65625 12.347656 L 69.65625 22.59375 C 58.605469 23.738281 55.539062 28.484375 56.375 37.640625 Z M 56.375 37.640625 " fill-opacity="1" fill-rule="nonzero"/></g></svg>