<svg width="32" height="33" viewBox="0 0 32 33" fill="none" xmlns="http://www.w3.org/2000/svg">
<path d="M29.65 21.3333L26.6167 19.1667C27.1167 17.3667 27.15 15.4167 26.6167 13.4667L29.65 11.3333L27.2334 7.16667L23.85 8.7C22.5334 7.36667 20.8667 6.33333 18.9167 5.85L18.5834 2.16667H13.75L13.4167 5.85C11.4667 6.33333 9.80005 7.36667 8.48338 8.7L5.10005 7.16667L2.68338 11.3333L5.71672 13.4667C5.18338 15.4167 5.21672 17.3667 5.71672 19.1667L2.68338 21.3333L5.10005 25.5L8.48338 23.95C9.80005 25.2667 11.4667 26.2667 13.4167 26.7833L13.75 30.5H18.5834L18.9167 26.7833C20.8667 26.2667 22.5334 25.2667 23.85 23.95L27.2334 25.5L29.65 21.3333ZM19.5 0.5C19.95 0.5 20.3334 0.833333 20.3334 1.26667L20.6334 4.66667C21.9 5.13333 23.0334 5.81667 24.05 6.63333L27.1334 5.18333C27.5167 4.98333 28 5.11667 28.2334 5.5L31.5667 11.3333C31.8 11.6833 31.6667 12.1667 31.3 12.4167L28.5167 14.3667C28.7334 15.7 28.7167 17.0167 28.5167 18.3L31.3 20.25C31.6667 20.5 31.8 20.9833 31.5667 21.3333L28.2334 27.1667C28 27.5167 27.5167 27.65 27.1334 27.45L24.05 26.0167C23.0334 26.8333 21.9 27.5 20.6334 28L20.3334 31.3333C20.3334 31.8167 19.95 32.1667 19.5 32.1667H12.8334C12.6124 32.1667 12.4004 32.0789 12.2441 31.9226C12.0878 31.7663 12 31.5543 12 31.3333L11.7 28C10.4334 27.5 9.30005 26.8333 8.28338 26.0167L5.20005 27.45C4.81672 27.65 4.33338 27.5167 4.10005 27.1667L0.766716 21.3333C0.533383 20.9833 0.666716 20.5 1.03338 20.25L3.81672 18.3C3.61672 17.0167 3.60005 15.7 3.81672 14.3667L1.03338 12.4167C0.666716 12.1667 0.533383 11.6833 0.766716 11.3333L4.10005 5.5C4.33338 5.11667 4.81672 4.98333 5.20005 5.18333L8.28338 6.63333C9.30005 5.81667 10.4334 5.13333 11.7 4.66667L12 1.26667C12 0.833333 12.3834 0.5 12.8334 0.5H19.5ZM16.1667 10.5C17.7138 10.5 19.1975 11.1146 20.2915 12.2085C21.3855 13.3025 22 14.7862 22 16.3333C22 17.8804 21.3855 19.3642 20.2915 20.4581C19.1975 21.5521 17.7138 22.1667 16.1667 22.1667C14.6196 22.1667 13.1359 21.5521 12.0419 20.4581C10.948 19.3642 10.3334 17.8804 10.3334 16.3333C10.3334 14.7862 10.948 13.3025 12.0419 12.2085C13.1359 11.1146 14.6196 10.5 16.1667 10.5ZM16.1667 12.1667C15.0616 12.1667 14.0018 12.6057 13.2204 13.3871C12.439 14.1685 12 15.2283 12 16.3333C12 17.4384 12.439 18.4982 13.2204 19.2796C14.0018 20.061 15.0616 20.5 16.1667 20.5C17.2718 20.5 18.3316 20.061 19.113 19.2796C19.8944 18.4982 20.3334 17.4384 20.3334 16.3333C20.3334 15.2283 19.8944 14.1685 19.113 13.3871C18.3316 12.6057 17.2718 12.1667 16.1667 12.1667Z" fill="#48BAAA"/>
</svg>
