<?xml version="1.0" encoding="utf-8"?>
<!-- Generator: Adobe Illustrator 28.0.0, SVG Export Plug-In . SVG Version: 6.00 Build 0)  -->
<svg version="1.1" id="Capa_1" xmlns="http://www.w3.org/2000/svg" xmlns:xlink="http://www.w3.org/1999/xlink" x="0px" y="0px"
	 viewBox="0 0 256 256" style="enable-background:new 0 0 256 256;" xml:space="preserve">
<style type="text/css">
	.st0{fill:#FFFFFF;}
</style>
<path class="st0" d="M183.12,28.79c-5.07-5.07-11.08-9.09-17.7-11.83c-6.62-2.74-13.72-4.15-20.88-4.15
	c-7.17,0-14.26,1.41-20.88,4.15c-6.62,2.74-12.63,6.76-17.7,11.83L51.4,83.35c-4.9-1.35-10.07-1.31-14.95,0.12
	c-4.87,1.43-9.25,4.19-12.64,7.97c-3.39,3.78-5.66,8.43-6.55,13.43c-0.89,5-0.37,10.15,1.5,14.87c-5.23,10.27-7.08,21.93-5.27,33.31
	c1.8,11.38,7.16,21.9,15.31,30.05l44.09,44.09c5.07,5.07,11.08,9.09,17.7,11.83c6.62,2.74,13.72,4.15,20.88,4.15
	c7.17,0,14.26-1.41,20.88-4.15c6.62-2.74,12.63-6.76,17.7-11.83l3.78-3.78c2.46,2.96,5.74,5.13,9.42,6.23
	c3.69,1.1,7.62,1.08,11.3-0.05c3.68-1.13,6.94-3.33,9.37-6.31c2.43-2.98,3.93-6.62,4.3-10.45c7.65,2.73,16,2.72,23.64-0.03
	c7.64-2.74,14.09-8.06,18.26-15.03c4.16-6.97,5.78-15.17,4.57-23.2c-1.21-8.03-5.16-15.39-11.19-20.83l3.71-3.72
	c5.07-5.07,9.09-11.08,11.83-17.7c2.74-6.62,4.15-13.71,4.15-20.88c0-7.17-1.41-14.26-4.15-20.88c-2.74-6.62-6.76-12.63-11.83-17.7
	L183.12,28.79z M71.26,106.99c-0.54-5.55-2.78-10.81-6.41-15.04l52.12-52.13c7.31-7.31,17.22-11.41,27.56-11.41
	s20.25,4.11,27.56,11.41l44.09,44.09c7.31,7.31,11.41,17.22,11.41,27.56c0,10.34-4.11,20.25-11.41,27.56l-6.94,6.94
	c-8.45-2.3-17.46-1.37-25.26,2.63l24.79-24.79c1.45-1.45,2.6-3.17,3.38-5.06c0.78-1.89,1.19-3.92,1.19-5.97
	c0-2.05-0.4-4.08-1.19-5.97c-0.78-1.89-1.93-3.61-3.38-5.06l-55.11-55.11c-1.45-1.45-3.17-2.6-5.06-3.38
	c-1.89-0.78-3.92-1.19-5.97-1.19c-2.05,0-4.08,0.4-5.97,1.19c-1.89,0.78-3.61,1.93-5.06,3.38L71.26,106.99z M69.41,119.85
	l67.72-67.72c1.46-1.46,3.44-2.28,5.51-2.28c2.07,0,4.05,0.82,5.51,2.28l55.11,55.11c0.72,0.72,1.3,1.58,1.69,2.53
	c0.39,0.95,0.59,1.96,0.59,2.98c0,1.02-0.2,2.04-0.59,2.98c-0.39,0.95-0.97,1.81-1.69,2.53l-88.18,88.18
	c-1.46,1.46-3.44,2.28-5.51,2.28c-2.07,0-4.05-0.82-5.51-2.28l-55.11-55.11c-0.72-0.72-1.3-1.58-1.69-2.53
	c-0.39-0.95-0.59-1.96-0.59-2.98s0.2-2.04,0.59-2.98c0.39-0.95,0.97-1.81,1.69-2.53l5.35-5.36c3.4-1.38,6.49-3.42,9.09-6.02
	C66,126.35,68.04,123.26,69.41,119.85z M30.12,133.07c3.54,2.12,7.51,3.4,11.61,3.76c-2.12,3-3.12,6.66-2.8,10.33
	c0.31,3.67,1.91,7.1,4.52,9.7l55.11,55.11c1.45,1.45,3.17,2.6,5.06,3.38c1.89,0.78,3.92,1.19,5.97,1.19c2.05,0,4.08-0.4,5.97-1.19
	c1.89-0.78,3.61-1.93,5.06-3.38l48.18-48.18c-4,7.8-4.93,16.81-2.63,25.26l-3.4,3.4c-2.91,0.96-5.55,2.58-7.72,4.75
	c-2.16,2.16-3.79,4.81-4.75,7.72l-11.26,11.27c-7.31,7.31-17.22,11.41-27.56,11.41c-10.34,0-20.25-4.11-27.56-11.41l-44.09-44.1
	c-5.01-5.01-8.56-11.29-10.27-18.16C27.84,147.05,28.04,139.85,30.12,133.07z M200,207.08c-7.23,0-14.17-2.87-19.29-7.99
	c-5.12-5.12-7.99-12.05-7.99-19.29c0-7.23,2.87-14.17,7.99-19.29c5.12-5.12,12.05-7.99,19.29-7.99s14.17,2.87,19.29,7.99
	s7.99,12.05,7.99,19.29c0,7.23-2.87,14.17-7.99,19.29C214.17,204.21,207.23,207.08,200,207.08z M168.82,199.29
	c0.73,0,1.45,0.07,2.14,0.19c2.49,3.68,5.67,6.86,9.35,9.35c0.44,2.36,0.14,4.8-0.85,6.99c-1,2.19-2.64,4.01-4.72,5.23
	c-2.07,1.22-4.47,1.77-6.87,1.57s-4.67-1.12-6.52-2.66c-1.85-1.54-3.18-3.6-3.81-5.92c-0.63-2.32-0.53-4.78,0.28-7.04
	c0.82-2.26,2.31-4.22,4.28-5.6S166.42,199.29,168.82,199.29z M44.11,129.14c-5.17,0-10.12-2.05-13.78-5.71
	c-3.65-3.65-5.71-8.61-5.71-13.78s2.05-10.12,5.71-13.78c3.65-3.65,8.61-5.71,13.78-5.71s10.12,2.05,13.78,5.71
	c3.65,3.65,5.71,8.61,5.71,13.78s-2.05,10.12-5.71,13.78C54.24,127.09,49.28,129.14,44.11,129.14z M48.01,47.3
	c0,3.1-1.23,6.07-3.42,8.27c-2.19,2.19-5.17,3.42-8.27,3.42c-3.1,0-6.07-1.23-8.27-3.42c-2.19-2.19-3.42-5.17-3.42-8.27
	c0-3.1,1.23-6.07,3.42-8.27s5.17-3.42,8.27-3.42c3.1,0,6.07,1.23,8.27,3.42S48.01,44.2,48.01,47.3z M40.21,47.3
	c0-1.03-0.41-2.02-1.14-2.76c-0.73-0.73-1.72-1.14-2.76-1.14s-2.02,0.41-2.76,1.14c-0.73,0.73-1.14,1.72-1.14,2.76
	c0,1.03,0.41,2.02,1.14,2.76c0.73,0.73,1.72,1.14,2.76,1.14s2.02-0.41,2.76-1.14C39.8,49.32,40.21,48.33,40.21,47.3z"/>
</svg>
