<svg width="38" height="38" viewBox="0 0 38 38" fill="none" xmlns="http://www.w3.org/2000/svg">
<path d="M28.1688 3.40749C27.3563 2.59488 26.3916 1.95028 25.33 1.5105C24.2683 1.07072 23.1304 0.84436 21.9813 0.84436C20.8321 0.84436 19.6943 1.07072 18.6326 1.5105C17.5709 1.95028 16.6063 2.59488 15.7938 3.40749L7.04378 12.1575C6.2586 11.9408 5.42853 11.9473 4.64688 12.1765C3.86522 12.4056 3.16298 12.8482 2.61909 13.4546C2.0752 14.061 1.71123 14.807 1.56808 15.6089C1.42493 16.4107 1.50829 17.2366 1.80878 17.9937C0.969894 19.6407 0.673849 21.511 0.963062 23.3365C1.25228 25.1621 2.1119 26.8492 3.41878 28.1562L10.49 35.2275C11.3026 36.0401 12.2672 36.6847 13.3288 37.1245C14.3905 37.5643 15.5284 37.7906 16.6775 37.7906C17.8267 37.7906 18.9646 37.5643 20.0262 37.1245C21.0879 36.6847 22.0525 36.0401 22.865 35.2275L23.4713 34.6212C23.8655 35.0961 24.3914 35.4435 24.9828 35.6199C25.5742 35.7962 26.2045 35.7935 26.7944 35.6121C27.3842 35.4306 27.9072 35.0786 28.2972 34.6004C28.6873 34.1222 28.9271 33.5393 28.9863 32.925C30.2127 33.3626 31.5529 33.3611 32.7783 32.9208C34.0038 32.4806 35.0385 31.6288 35.7061 30.5108C36.3736 29.3928 36.6326 28.0779 36.4389 26.7902C36.2452 25.5026 35.6107 24.3221 34.6438 23.45L35.2388 22.8537C36.0514 22.0412 36.696 21.0766 37.1358 20.0149C37.5756 18.9533 37.8019 17.8154 37.8019 16.6662C37.8019 15.5171 37.5756 14.3792 37.1358 13.3176C36.696 12.2559 36.0514 11.2913 35.2388 10.4787L28.1688 3.40749ZM10.2288 15.9475C10.1422 15.0569 9.78343 14.2145 9.20128 13.535L17.56 5.17499C18.7321 4.00292 20.3218 3.34445 21.9794 3.34445C23.637 3.34445 25.2267 4.00292 26.3988 5.17499L33.47 12.2462C34.6421 13.4183 35.3006 15.008 35.3006 16.6656C35.3006 18.3232 34.6421 19.9129 33.47 21.085L32.3575 22.1975C31.0018 21.8279 29.5569 21.9781 28.3063 22.6187L32.2825 18.6425C32.5148 18.4103 32.699 18.1347 32.8247 17.8313C32.9504 17.5279 33.0151 17.2028 33.0151 16.8744C33.0151 16.546 32.9504 16.2208 32.8247 15.9174C32.699 15.614 32.5148 15.3384 32.2825 15.1062L23.445 6.26874C23.2128 6.0363 22.9371 5.8519 22.6336 5.72609C22.3301 5.60028 22.0048 5.53553 21.6763 5.53553C21.3477 5.53553 21.0224 5.60028 20.7189 5.72609C20.4154 5.8519 20.1397 6.0363 19.9075 6.26874L10.2288 15.9475ZM9.93253 18.0112L20.7925 7.15124C21.0269 6.9169 21.3448 6.78526 21.6763 6.78526C22.0077 6.78526 22.3256 6.9169 22.56 7.15124L31.3988 15.99C31.515 16.1061 31.6072 16.2439 31.6701 16.3957C31.733 16.5474 31.7654 16.7101 31.7654 16.8744C31.7654 17.0386 31.733 17.2013 31.6701 17.353C31.6072 17.5048 31.515 17.6427 31.3988 17.7587L17.2575 31.9C17.0231 32.1343 16.7052 32.266 16.3738 32.266C16.0423 32.266 15.7244 32.1343 15.49 31.9L6.65253 23.0625C6.53631 22.9464 6.44411 22.8085 6.38121 22.6568C6.3183 22.505 6.28592 22.3424 6.28592 22.1781C6.28592 22.0138 6.3183 21.8512 6.38121 21.6994C6.44411 21.5477 6.53631 21.4098 6.65253 21.2937L7.51128 20.4337C8.05684 20.213 8.55243 19.8847 8.9686 19.4686C9.38476 19.0524 9.71174 18.5568 9.93253 18.0112ZM3.63128 20.1312C4.19828 20.471 4.83524 20.677 5.49378 20.7337C5.15313 21.2155 4.99387 21.8023 5.0442 22.3902C5.09453 22.9782 5.35119 23.5293 5.76878 23.9462L14.6063 32.7837C14.8384 33.016 15.1141 33.2002 15.4175 33.3259C15.7208 33.4516 16.046 33.5163 16.3744 33.5163C16.7028 33.5163 17.028 33.4516 17.3313 33.3259C17.6347 33.2002 17.9104 33.016 18.1425 32.7837L25.8688 25.0575C25.2281 26.3081 25.0779 27.753 25.4475 29.1087L24.9025 29.6537C24.436 29.8069 24.0121 30.0677 23.6649 30.4149C23.3177 30.762 23.057 31.186 22.9038 31.6525L21.0975 33.46C19.9254 34.6321 18.3357 35.2905 16.6782 35.2905C15.0206 35.2905 13.4309 34.6321 12.2588 33.46L5.18753 26.3875C4.38388 25.5844 3.81433 24.5775 3.54013 23.4749C3.26593 22.3724 3.29744 21.2172 3.63128 20.1312ZM30.875 32C29.7147 32 28.6019 31.5391 27.7814 30.7186C26.961 29.8981 26.5 28.7853 26.5 27.625C26.5 26.4647 26.961 25.3519 27.7814 24.5314C28.6019 23.7109 29.7147 23.25 30.875 23.25C32.0353 23.25 33.1481 23.7109 33.9686 24.5314C34.7891 25.3519 35.25 26.4647 35.25 27.625C35.25 28.7853 34.7891 29.8981 33.9686 30.7186C33.1481 31.5391 32.0353 32 30.875 32ZM25.875 30.75C25.9925 30.75 26.1075 30.7612 26.2188 30.7812C26.6188 31.3712 27.1288 31.8812 27.7188 32.2812C27.7895 32.6603 27.7416 33.0518 27.5817 33.4027C27.4218 33.7535 27.1576 34.0465 26.8251 34.2418C26.4927 34.437 26.1081 34.525 25.7238 34.4938C25.3395 34.4626 24.9742 34.3137 24.6776 34.0674C24.381 33.8211 24.1676 33.4893 24.0663 33.1173C23.9651 32.7453 23.981 32.3511 24.1119 31.9884C24.2428 31.6258 24.4823 31.3123 24.7978 31.0907C25.1133 30.8691 25.4895 30.7501 25.875 30.75ZM5.87503 19.5C5.04623 19.5 4.25137 19.1708 3.66532 18.5847C3.07927 17.9986 2.75003 17.2038 2.75003 16.375C2.75003 15.5462 3.07927 14.7513 3.66532 14.1653C4.25137 13.5792 5.04623 13.25 5.87503 13.25C6.70383 13.25 7.49869 13.5792 8.08474 14.1653C8.67079 14.7513 9.00003 15.5462 9.00003 16.375C9.00003 17.2038 8.67079 17.9986 8.08474 18.5847C7.49869 19.1708 6.70383 19.5 5.87503 19.5ZM6.50003 6.37499C6.50003 6.87227 6.30249 7.34919 5.95086 7.70082C5.59923 8.05245 5.12231 8.24999 4.62503 8.24999C4.12775 8.24999 3.65084 8.05245 3.29921 7.70082C2.94758 7.34919 2.75003 6.87227 2.75003 6.37499C2.75003 5.87771 2.94758 5.4008 3.29921 5.04917C3.65084 4.69754 4.12775 4.49999 4.62503 4.49999C5.12231 4.49999 5.59923 4.69754 5.95086 5.04917C6.30249 5.4008 6.50003 5.87771 6.50003 6.37499ZM5.25003 6.37499C5.25003 6.20923 5.18418 6.05026 5.06697 5.93305C4.94976 5.81584 4.79079 5.74999 4.62503 5.74999C4.45927 5.74999 4.3003 5.81584 4.18309 5.93305C4.06588 6.05026 4.00003 6.20923 4.00003 6.37499C4.00003 6.54075 4.06588 6.69972 4.18309 6.81693C4.3003 6.93414 4.45927 6.99999 4.62503 6.99999C4.79079 6.99999 4.94976 6.93414 5.06697 6.81693C5.18418 6.69972 5.25003 6.54075 5.25003 6.37499Z" fill="#279D8D"/>
</svg>
