<?xml version="1.0" encoding="utf-8"?>
<!-- Generator: Adobe Illustrator 28.0.0, SVG Export Plug-In . SVG Version: 6.00 Build 0)  -->
<svg version="1.1" id="Capa_1" xmlns="http://www.w3.org/2000/svg" xmlns:xlink="http://www.w3.org/1999/xlink" x="0px" y="0px"
	 viewBox="0 0 256 256" style="enable-background:new 0 0 256 256;" xml:space="preserve">
<style type="text/css">
	.st0{fill:#FFFFFF;}
</style>
<path class="st0" d="M11,142.82c1.02-3.22,3.42-4.93,6.37-6.28c24.14-11.02,48.24-22.13,72.38-33.17
	c15.92-7.27,33.52-1.27,41.18,13.96c9.27,18.42-2.54,41.35-22.94,43.98c-4.74,0.61-9.7-0.04-14.52-0.5
	c-10.65-1.01-21.28-2.27-31.92-3.43c-10.49-1.15-20.97-2.3-31.46-3.45c-3.17-0.35-6.33-0.93-9.51-1.01
	c-4.67-0.12-7.98-1.94-9.6-6.45C11,145.26,11,144.04,11,142.82z"/>
<path class="st0" d="M212.73,45.65c-10.5,0-20.53-0.03-30.56,0.01c-15.88,0.05-28.61,10.18-32.29,25.63
	c-4.15,17.46,8.29,36.04,26,38.73c2.39,0.36,4.83,0.51,7.25,0.52c11.02,0.05,22.05,0.02,33.07,0.02c0.89,0,1.78,0,2.64,0
	c5.47,52.96-33.68,98.73-86.06,100.67c-0.04-0.79-0.11-1.59-0.11-2.39c-0.01-14.06,0.02-28.13-0.04-42.19
	c-0.01-1.59,0.52-2.66,1.62-3.76c8.9-8.88,13.56-19.58,13.62-32.22c0.08-16.96-10.71-33.59-26.32-40.17
	c-2.21-0.93-2.89-2.02-2.81-4.33c0.24-6.6-0.01-13.23,0.39-19.82c0.84-14.03,7-25.49,17.88-34.27c13.2-10.66,28.44-12.69,44.55-9.32
	C195.13,25.59,205.21,33.55,212.73,45.65z"/>
<path class="st0" d="M38.71,168.71c4.18,0.43,8.07,0.81,11.96,1.23c10.64,1.15,21.27,2.34,31.91,3.48
	c6.19,0.66,12.37,1.32,18.57,1.84c5.58,0.46,11.05-0.29,16.37-2.08c0.34-0.12,0.71-0.16,1.28-0.29c0,12.86,0,25.57,0,38.51
	c-1.64,0.07-3.28,0.15-5.11,0.23c0,2.85,0,5.67,0,8.64c0.98,0.04,1.87,0.05,2.76,0.13c3.47,0.29,6.31,3.45,6.24,6.94
	c-0.06,3.44-2.8,6.59-6.23,6.67c-6.76,0.14-13.53,0.15-20.29,0.01c-3.57-0.07-6.27-3.27-6.23-6.87c0.04-3.58,2.82-6.53,6.4-6.75
	c0.97-0.06,1.94-0.01,3.19-0.01c0-3.07,0.08-5.94-0.08-8.79c-0.03-0.46-1.04-1.15-1.68-1.26c-11.13-1.92-21.49-5.84-31.02-11.89
	c-11.49-7.3-20.68-16.85-27.56-28.6C39.06,169.61,38.97,169.33,38.71,168.71z"/>
<path class="st0" d="M216.11,52.95c9.7-0.84,18.13,0.63,24.15,8.68c2.66,3.56,4.1,7.6,4.22,12.03c0.12,4.25,0.09,8.5,0.03,12.75
	c-0.06,3.56-2.76,6.54-6.22,6.63c-5.54,0.14-11.08,0.05-16.62,0.05c-0.75,0-1.51,0-2.4,0C218.18,79.71,221.04,66.13,216.11,52.95z"
	/>
<path class="st0" d="M185.45,66.1c3.88-0.05,7.01,2.98,7.05,6.8c0.04,3.78-3.12,6.94-6.92,6.95c-3.82,0.01-6.96-3.13-6.94-6.93
	C178.66,69.19,181.7,66.15,185.45,66.1z"/>
</svg>
