<svg width="34" height="27" viewBox="0 0 34 27" fill="none" xmlns="http://www.w3.org/2000/svg">
<path d="M17 6.33333L14.7833 6.48333C13.35 4.78333 9.33329 0.5 5.33328 0.5C5.33328 0.5 2.04995 5.43333 5.26662 12.0167C4.34995 13.4 3.78328 14.1167 3.66662 15.7667L0.449951 16.25L0.799951 17.8833L3.73328 17.45L3.96662 18.6333L1.34995 20.2L2.13328 21.6833L4.54995 20.2C6.46662 24.2667 11.3166 26.3333 17 26.3333C22.6833 26.3333 27.5333 24.2667 29.45 20.2L31.8666 21.6833L32.65 20.2L30.0333 18.6333L30.2666 17.45L33.2 17.8833L33.55 16.25L30.3333 15.7667C30.2166 14.1167 29.65 13.4 28.7333 12.0167C31.95 5.43333 28.6666 0.5 28.6666 0.5C24.6666 0.5 20.65 4.78333 19.2166 6.48333L17 6.33333ZM12 11.3333C12.442 11.3333 12.8659 11.5089 13.1785 11.8215C13.491 12.1341 13.6666 12.558 13.6666 13C13.6666 13.442 13.491 13.866 13.1785 14.1785C12.8659 14.4911 12.442 14.6667 12 14.6667C11.5579 14.6667 11.134 14.4911 10.8214 14.1785C10.5089 13.866 10.3333 13.442 10.3333 13C10.3333 12.558 10.5089 12.1341 10.8214 11.8215C11.134 11.5089 11.5579 11.3333 12 11.3333ZM22 11.3333C22.442 11.3333 22.8659 11.5089 23.1785 11.8215C23.491 12.1341 23.6666 12.558 23.6666 13C23.6666 13.442 23.491 13.866 23.1785 14.1785C22.8659 14.4911 22.442 14.6667 22 14.6667C21.5579 14.6667 21.134 14.4911 20.8214 14.1785C20.5089 13.866 20.3333 13.442 20.3333 13C20.3333 12.558 20.5089 12.1341 20.8214 11.8215C21.134 11.5089 21.5579 11.3333 22 11.3333ZM15.3333 16.3333H18.6666L17.5 18.65C17.8333 19.7167 18.7666 20.5 19.9166 20.5C20.5797 20.5 21.2155 20.2366 21.6844 19.7678C22.1532 19.2989 22.4166 18.663 22.4166 18H23.25C23.25 18.8841 22.8988 19.7319 22.2736 20.357C21.6485 20.9821 20.8007 21.3333 19.9166 21.3333C18.6666 21.3333 17.5833 20.65 17 19.6667C16.4166 20.65 15.3333 21.3333 14.0833 21.3333C13.1992 21.3333 12.3514 20.9821 11.7263 20.357C11.1011 19.7319 10.75 18.8841 10.75 18H11.5833C11.5833 18.663 11.8467 19.2989 12.3155 19.7678C12.7844 20.2366 13.4202 20.5 14.0833 20.5C15.2333 20.5 16.1666 19.7167 16.5 18.65L15.3333 16.3333Z" fill="white"/>
</svg>
