<svg width="38" height="23" viewBox="0 0 38 23" fill="none" xmlns="http://www.w3.org/2000/svg">
<path d="M33.4413 0.369519C33.3859 0.371353 33.3306 0.374635 33.2753 0.379363C21.8696 1.34577 10.6638 3.88202 1.34915 8.94374C0.539622 9.38374 0.16134 10.0359 0.0331372 11.0019C-0.0949878 11.968 0.0982934 13.2259 0.558137 14.5835C1.43439 17.171 3.26009 20.091 5.19673 22.2494L6.57118 21.8807L3.6854 11.1094L5.094 10.7333L7.97993 21.5024L9.6229 21.0606L6.73712 10.294L8.14587 9.91561L11.0315 20.682L12.4987 20.2891L9.61548 9.52241L11.0267 9.14405L13.91 19.9081L15.4944 19.4833L12.6088 8.71928L14.0199 8.34077L16.9031 19.105L18.5463 18.6631L15.663 7.90139L17.0716 7.52296L19.9549 18.2847L21.5979 17.8452L18.7147 7.0835L20.1233 6.70499L23.0092 17.4644L24.535 17.0565L21.6517 6.29718L23.0603 5.91882L25.9437 16.6757L27.6992 16.2046L24.8183 5.44757L26.2295 5.06921L29.1103 15.8261L30.7509 15.3866L27.8701 4.62975L29.2812 4.25155L32.162 15.0058L33.7464 14.581L30.8656 3.82905L32.2745 3.45069L35.1553 14.2026L36.5371 13.8315C37.1368 10.9877 37.2593 7.47936 36.7251 4.76663C36.4449 3.34335 35.979 2.1496 35.3923 1.39491C34.8787 0.734597 34.3388 0.3928 33.6026 0.369519C33.55 0.367957 33.496 0.367957 33.4415 0.369519H33.4413Z" fill="#279D8D"/>
</svg>
