<?xml version="1.0" encoding="utf-8"?>
<!-- Generator: Adobe Illustrator 28.0.0, SVG Export Plug-In . SVG Version: 6.00 Build 0)  -->
<svg version="1.1" id="Capa_1" xmlns="http://www.w3.org/2000/svg" xmlns:xlink="http://www.w3.org/1999/xlink" x="0px" y="0px"
	 viewBox="0 0 256 256" style="enable-background:new 0 0 256 256;" xml:space="preserve">
<style type="text/css">
	.st0{fill:#FFFFFF;}
</style>
<path class="st0" d="M225.75,56.29c-0.36,0.01-0.73,0.03-1.09,0.06C149.9,62.69,76.44,79.32,15.38,112.5
	c-5.31,2.88-7.79,7.16-8.63,13.49c-0.84,6.33,0.43,14.58,3.44,23.48c5.74,16.96,17.71,36.1,30.41,50.25l9.01-2.42L30.7,126.69
	l9.23-2.47l18.92,70.59l10.77-2.9L50.7,121.35l9.23-2.48l18.92,70.58l9.62-2.58l-18.9-70.58l9.25-2.48l18.9,70.56l10.39-2.78
	l-18.92-70.56l9.25-2.48l18.9,70.56l10.77-2.9l-18.9-70.55l9.23-2.48l18.9,70.55l10.77-2.88l-18.9-70.55l9.23-2.48l18.92,70.53
	l10-2.67l-18.9-70.53l9.23-2.48l18.9,70.51l11.51-3.09l-18.88-70.51l9.25-2.48l18.88,70.51l10.75-2.88l-18.88-70.51l9.25-2.48
	l18.88,70.5l10.39-2.78l-18.88-70.48l9.24-2.48l18.88,70.48l9.06-2.43c3.93-18.64,4.73-41.64,1.23-59.42
	c-1.84-9.33-4.89-17.16-8.74-22.1c-3.37-4.33-6.91-6.57-11.73-6.72C226.46,56.28,226.11,56.28,225.75,56.29L225.75,56.29z"/>
</svg>
