<svg width="50" height="51" viewBox="0 0 50 51" fill="none" xmlns="http://www.w3.org/2000/svg">
<path d="M10.0001 4.8306e-06H15.2301L9.98508 15H0.955078L7.76508 1.38C7.9729 0.96527 8.29202 0.616538 8.68673 0.372822C9.08145 0.129107 9.53619 2.03973e-05 10.0001 4.8306e-06ZM1.13508 20L16.2051 43.435L9.85008 20H1.13508ZM15.0301 20L22.6801 48.225C22.8157 48.7369 23.1167 49.1895 23.5363 49.5125C23.9559 49.8354 24.4706 50.0105 25.0001 50.0105C25.5296 50.0105 26.0442 49.8354 26.4638 49.5125C26.8835 49.1895 27.1845 48.7369 27.3201 48.225L34.9901 20H15.0301ZM40.1701 20L33.8001 43.425L48.8651 20H40.1701ZM49.0451 15H40.0301L34.7801 4.8306e-06H40.0001C40.4648 -0.000908609 40.9206 0.12774 41.3163 0.371507C41.712 0.615274 42.0319 0.964509 42.2401 1.38L49.0451 15ZM34.7351 15H15.2851L20.5251 4.8306e-06H29.4751L34.7351 15Z" fill="#279D8D"/>
</svg>
