<svg width="38" height="28" viewBox="0 0 38 28" fill="none" xmlns="http://www.w3.org/2000/svg">
<path d="M29.0001 0.666748C26.1501 0.666748 24.4167 1.21675 23.4167 1.68341C22.1334 1.05008 20.6667 0.666748 19.0001 0.666748C17.3334 0.666748 15.8667 1.05008 14.5834 1.68341C13.5834 1.21675 11.8501 0.666748 9.00008 0.666748C4.00008 0.666748 0.666748 14.0001 0.666748 17.3334C0.666748 18.7167 2.86675 19.9834 5.90008 20.5001C6.96675 24.2334 12.0001 27.0834 18.1667 27.3334V20.2001C17.1834 19.5834 15.6667 18.4667 15.6667 17.3334C15.6667 15.6667 19.0001 15.6667 19.0001 15.6667C19.0001 15.6667 22.3334 15.6667 22.3334 17.3334C22.3334 18.4667 20.8167 19.5834 19.8334 20.2001V27.3334C26.0001 27.0834 31.0334 24.2334 32.1001 20.5001C35.1334 19.9834 37.3334 18.7167 37.3334 17.3334C37.3334 14.0001 34.0001 0.666748 29.0001 0.666748ZM5.91675 17.1167C5.08342 16.9167 4.43341 16.6834 4.00008 16.5001C4.41675 11.8834 7.66675 4.66675 9.08342 4.00008C9.98342 4.00008 10.6667 4.10008 11.2834 4.18341C7.78341 8.03341 6.40008 14.0667 5.91675 17.1167ZM14.0001 14.0001C13.5581 14.0001 13.1341 13.8245 12.8216 13.5119C12.509 13.1994 12.3334 12.7754 12.3334 12.3334C12.3334 11.4334 13.0834 10.6667 14.0001 10.6667C14.4421 10.6667 14.866 10.8423 15.1786 11.1549C15.4912 11.4675 15.6667 11.8914 15.6667 12.3334C15.6667 13.2667 14.9167 14.0001 14.0001 14.0001ZM24.0001 14.0001C23.5581 14.0001 23.1341 13.8245 22.8216 13.5119C22.509 13.1994 22.3334 12.7754 22.3334 12.3334C22.3334 11.4334 23.0834 10.6667 24.0001 10.6667C24.4421 10.6667 24.866 10.8423 25.1786 11.1549C25.4912 11.4675 25.6667 11.8914 25.6667 12.3334C25.6667 13.2667 24.9167 14.0001 24.0001 14.0001ZM32.0834 17.1167C31.6001 14.0667 30.2167 8.03341 26.7167 4.18341C27.3334 4.10008 28.0168 4.00008 28.9167 4.00008C30.3334 4.66675 33.5834 11.8834 34.0001 16.5001C33.5834 16.6834 32.9334 16.9167 32.0834 17.1167Z" fill="white"/>
</svg>
