<svg width="30" height="30" viewBox="0 0 30 30" fill="none" xmlns="http://www.w3.org/2000/svg">
<path d="M10.8333 30C9.64333 30 8.65111 29.6033 7.85667 28.81C7.06333 28.0144 6.66667 27.0222 6.66667 25.8333C6.66667 25.3267 6.64278 24.9028 6.595 24.5617C6.54611 24.2194 6.42667 23.9528 6.23667 23.7617C6.04667 23.5706 5.78056 23.4411 5.43833 23.3733C5.09722 23.3044 4.67333 23.27 4.16667 23.27C2.97667 23.27 1.98444 22.8833 1.19 22.11C0.396667 21.3378 0 20.3567 0 19.1667C0 17.9767 0.396667 16.9844 1.19 16.19C1.98556 15.3967 2.97778 15 4.16667 15C4.61333 15 5.03667 15.0567 5.43667 15.17C5.83667 15.2833 6.17611 15.4533 6.455 15.68C6.755 15.9144 7.10222 16.0317 7.49667 16.0317C7.89111 16.0317 8.22778 15.8928 8.50667 15.615L15.4867 8.635C15.7644 8.35722 15.925 8.00444 15.9683 7.57667C16.0106 7.15 15.9144 6.77611 15.68 6.455C15.4744 6.15389 15.31 5.80889 15.1867 5.42C15.0622 5.03111 15 4.61333 15 4.16667C15 2.97667 15.3967 1.98444 16.19 1.19C16.9856 0.396667 17.9778 0 19.1667 0C20.3567 0 21.3489 0.396667 22.1433 1.19C22.9367 1.98556 23.3333 2.97778 23.3333 4.16667C23.3333 4.67333 23.3572 5.09722 23.405 5.43833C23.4539 5.78056 23.5733 6.04722 23.7633 6.23833C23.9533 6.42944 24.2194 6.54833 24.5617 6.595C24.9028 6.64278 25.3267 6.66667 25.8333 6.66667C27.0233 6.66667 28.0156 7.06333 28.81 7.85667C29.6033 8.65222 30 9.64444 30 10.8333C30 12.0233 29.6033 13.0156 28.81 13.81C28.0144 14.6033 27.0222 15 25.8333 15C25.3867 15 24.9689 14.9378 24.58 14.8133C24.1911 14.69 23.8461 14.5256 23.545 14.32C23.2239 14.1067 22.8606 14.0161 22.455 14.0483C22.0494 14.0806 21.7078 14.2356 21.43 14.5133L14.5133 21.43C14.2356 21.7078 14.075 22.0333 14.0317 22.4067C13.9894 22.7811 14.0644 23.1389 14.2567 23.48C14.44 23.7822 14.61 24.1378 14.7667 24.5467C14.9222 24.9578 15 25.3867 15 25.8333C15 27.0233 14.6033 28.0156 13.81 28.81C13.0144 29.6033 12.0222 30 10.8333 30ZM10.8333 28.3333C11.5556 28.3333 12.1528 28.0972 12.625 27.625C13.0972 27.1528 13.3333 26.5556 13.3333 25.8333C13.3333 25.5833 13.2989 25.3406 13.23 25.105C13.1611 24.8694 13.0567 24.64 12.9167 24.4167C12.4867 23.7722 12.3033 23.0622 12.3667 22.2867C12.4278 21.5122 12.75 20.8333 13.3333 20.25L20.25 13.3333C20.8333 12.75 21.5122 12.4328 22.2867 12.3817C23.0611 12.3306 23.7711 12.5089 24.4167 12.9167C24.6389 13.0556 24.8683 13.16 25.105 13.23C25.3417 13.3 25.5844 13.3344 25.8333 13.3333C26.5556 13.3333 27.1528 13.0972 27.625 12.625C28.0972 12.1528 28.3333 11.5556 28.3333 10.8333C28.3333 10.1111 28.0972 9.51389 27.625 9.04167C27.1528 8.56944 26.5556 8.33333 25.8333 8.33333C25.0322 8.33333 24.3783 8.26889 23.8717 8.14C23.365 8.01 22.9356 7.76889 22.5833 7.41667C22.2311 7.06444 21.99 6.635 21.86 6.12833C21.7311 5.62056 21.6667 4.96667 21.6667 4.16667C21.6667 3.44444 21.4306 2.84722 20.9583 2.375C20.4861 1.90278 19.8889 1.66667 19.1667 1.66667C18.4444 1.66667 17.8472 1.90278 17.375 2.375C16.9028 2.84722 16.6667 3.44444 16.6667 4.16667C16.6667 4.43 16.7 4.67611 16.7667 4.905C16.8333 5.135 16.9389 5.36111 17.0833 5.58333C17.5133 6.22778 17.6967 6.93778 17.6333 7.71333C17.5722 8.48778 17.25 9.16667 16.6667 9.75L9.75 16.6667C9.16667 17.25 8.48778 17.5672 7.71333 17.6183C6.93889 17.6694 6.22889 17.4911 5.58333 17.0833C5.36111 16.9444 5.13222 16.8406 4.89667 16.7717C4.66111 16.7028 4.41778 16.6678 4.16667 16.6667C3.44444 16.6667 2.84722 16.9028 2.375 17.375C1.90278 17.8472 1.66667 18.4444 1.66667 19.1667C1.66667 19.8889 1.90278 20.4756 2.375 20.9267C2.84722 21.3778 3.44444 21.6033 4.16667 21.6033C4.96778 21.6033 5.62167 21.6783 6.12833 21.8283C6.635 21.9794 7.06444 22.2311 7.41667 22.5833C7.76889 22.9356 8.01 23.3756 8.14 23.9033C8.27 24.4311 8.33444 25.0956 8.33333 25.8967C8.33333 26.6189 8.56944 27.2056 9.04167 27.6567C9.51389 28.1078 10.1111 28.3333 10.8333 28.3333Z" fill="white"/>
</svg>
