<?xml version="1.0" encoding="utf-8"?>
<!-- Generator: Adobe Illustrator 28.0.0, SVG Export Plug-In . SVG Version: 6.00 Build 0)  -->
<svg version="1.1" id="Capa_1" xmlns="http://www.w3.org/2000/svg" xmlns:xlink="http://www.w3.org/1999/xlink" x="0px" y="0px"
	 viewBox="0 0 256 256" style="enable-background:new 0 0 256 256;" xml:space="preserve">
<style type="text/css">
	.st0{fill:#FFFFFF;}
</style>
<path class="st0" d="M71,11.5c4.36,1.36,8.78,2.57,13.07,4.13c2.08,0.76,3.94,2.15,6.4,3.54C77.52,24.7,66.4,32.12,56.48,41.32
	c-9.92,9.21-18.18,19.77-25.12,31.48c-8.25-12.46-7.66-30.64,1.43-43.65c6.74-9.65,16-15.42,27.67-17.23
	c0.35-0.05,0.66-0.28,0.99-0.43C64.64,11.5,67.82,11.5,71,11.5z"/>
<path class="st0" d="M194.08,11.5c2.89,0.77,5.84,1.36,8.66,2.33c23.31,8.02,34.1,35.45,22.56,57.23c-0.28,0.53-0.61,1.04-1.06,1.78
	c-14.27-23.67-33.03-42.24-58.8-53.55c3.55-2.85,7.4-4.61,11.47-5.89c2.5-0.78,5.08-1.27,7.63-1.89
	C187.73,11.5,190.91,11.5,194.08,11.5z"/>
<path class="st0" d="M127.82,217.31c-16.44-0.49-32.66-1.88-48.49-6.43c-13.41-3.85-25.68-9.81-35.59-19.92
	c-9.19-9.37-14.63-20.7-16.73-33.55c-4.58-28.03,2.12-53.87,16.05-78.08c10.1-17.55,23.61-31.96,41.22-42.23
	c15.22-8.88,31.66-13.08,49.28-11.82c20.58,1.47,38.35,9.79,53.69,23.33c21.74,19.18,35.03,43.32,40.72,71.61
	c2.85,14.15,3.04,28.4-0.57,42.51c-4.94,19.32-16.82,32.96-34.5,41.78c-11.34,5.66-23.44,8.87-35.95,10.37
	C147.28,216.03,137.53,216.52,127.82,217.31z M107.32,166.84c0,4.19-0.01,9.1,0,14.02c0.02,4.96,2.79,7.77,7.71,7.78
	c8.48,0.02,16.95,0.02,25.43,0c4.95-0.01,7.73-2.8,7.75-7.73c0.02-4.39,0.06-8.78-0.03-13.17c-0.03-1.38,0.55-1.76,1.72-2.37
	c3.32-1.73,6.57-3.65,9.61-5.83c1.92-1.38,2.64-3.67,2.16-6.1c-1.08-5.45-7.09-7.43-11.38-3.67c-3.23,2.83-6.81,4.08-11.06,3.43
	c-4.01-0.61-4.42-1.32-4.71-5.29c-0.22-3.09,0.87-5.16,3.04-7.27c7.4-7.15,14.61-14.5,21.87-21.79c2.22-2.23,3.09-4.86,1.76-7.85
	c-1.27-2.85-3.66-4.13-6.72-4.13c-17.79-0.01-35.57-0.01-53.36,0c-3.16,0-5.6,1.31-6.85,4.28c-1.27,3.02-0.28,5.6,1.94,7.82
	c6.96,6.95,13.77,14.07,20.94,20.79c2.99,2.8,4.33,5.66,3.86,9.67c-0.17,1.42-0.59,2.19-1.84,2.68c-5.01,1.99-9.57,1.46-13.71-2.18
	c-3.39-2.98-7.44-2.84-10.06,0.21c-2.58,3-2.34,7.14,1.1,9.8C99.75,162.45,103.42,164.39,107.32,166.84z M87.08,74.08
	c-6.95,0-12.91,2.35-17.96,6.99c-3.18,2.93-3.51,6.9-0.89,9.86c2.61,2.95,6.58,3.05,9.89,0.25c5.76-4.87,11.79-4.86,17.56,0.01
	c3.31,2.8,7.28,2.69,9.89-0.27c2.61-2.95,2.28-6.95-0.9-9.86C99.68,76.48,93.79,74.13,87.08,74.08z M169.23,74.08
	c-7.25-0.02-13.23,2.3-18.29,6.92c-3.28,2.99-3.59,7.06-0.87,10.02c2.67,2.89,6.55,2.91,9.9,0.06c5.57-4.74,11.78-4.72,17.39,0.04
	c3.34,2.84,7.25,2.78,9.9-0.14c2.7-2.98,2.34-7.04-0.94-10.03C181.38,76.46,175.55,74.16,169.23,74.08z"/>
<path class="st0" d="M156.36,228.6c-7.66,10.5-17.36,15.81-29.85,15.38c-11.46-0.39-20.32-5.68-27.29-15.38
	C118.45,230.94,137.11,230.98,156.36,228.6z"/>
<path class="st0" d="M134.58,174.9c-4.6,0-8.96,0-13.46,0c0-2.97,0-5.88,0-8.73c1.95-0.88,3.86-1.78,5.81-2.58
	c0.48-0.2,1.11-0.07,1.66-0.06c0.13,0,0.26,0.14,0.4,0.21c1.83,0.84,4.49,1.22,5.28,2.64c0.94,1.68,0.28,4.26,0.3,6.45
	C134.58,173.43,134.58,174.04,134.58,174.9z"/>
<path class="st0" d="M117.98,120.65c6.43,0,13.22,0,19.8,0c-3.32,3.34-6.69,6.74-9.86,9.93
	C124.73,127.4,121.29,123.96,117.98,120.65z"/>
</svg>
