<?xml version="1.0" encoding="utf-8"?>
<!-- Generator: Adobe Illustrator 28.0.0, SVG Export Plug-In . SVG Version: 6.00 Build 0)  -->
<svg version="1.1" id="Capa_1" xmlns="http://www.w3.org/2000/svg" xmlns:xlink="http://www.w3.org/1999/xlink" x="0px" y="0px"
	 viewBox="0 0 256 256" style="enable-background:new 0 0 256 256;" xml:space="preserve">
<style type="text/css">
	.st0{fill:#FFFFFF;}
</style>
<path class="st0" d="M94.81,247.5c-9.48,0-17.38-3.16-23.71-9.48c-6.32-6.34-9.48-14.24-9.48-23.71c0-4.04-0.19-7.41-0.57-10.13
	c-0.39-2.73-1.34-4.85-2.85-6.37s-3.63-2.55-6.36-3.09c-2.72-0.55-6.09-0.82-10.13-0.82c-9.48,0-17.39-3.08-23.71-9.24
	c-6.32-6.15-9.48-13.97-9.48-23.45c0-9.48,3.16-17.39,9.48-23.71c6.34-6.32,14.24-9.48,23.71-9.48c3.56,0,6.93,0.45,10.12,1.35
	c3.19,0.9,5.89,2.26,8.11,4.06c2.39,1.87,5.16,2.8,8.3,2.8c3.14,0,5.82-1.11,8.05-3.32l55.61-55.61c2.21-2.21,3.49-5.02,3.84-8.43
	c0.34-3.4-0.43-6.38-2.3-8.94c-1.64-2.4-2.95-5.15-3.93-8.25c-0.99-3.1-1.49-6.43-1.49-9.98c0-9.48,3.16-17.39,9.48-23.71
	c6.34-6.32,14.24-9.48,23.71-9.48c9.48,0,17.38,3.16,23.71,9.48c6.32,6.34,9.48,14.24,9.48,23.71c0,4.04,0.19,7.41,0.57,10.13
	c0.39,2.73,1.34,4.85,2.85,6.37c1.51,1.52,3.63,2.47,6.36,2.84c2.72,0.38,6.09,0.57,10.13,0.57c9.48,0,17.39,3.16,23.71,9.48
	c6.32,6.34,9.48,14.24,9.48,23.71c0,9.48-3.16,17.39-9.48,23.71c-6.34,6.32-14.24,9.48-23.71,9.48c-3.56,0-6.89-0.5-9.98-1.49
	c-3.1-0.98-5.85-2.29-8.25-3.93c-2.56-1.7-5.45-2.42-8.68-2.16c-3.23,0.26-5.95,1.49-8.17,3.7l-55.1,55.1
	c-2.21,2.21-3.49,4.81-3.84,7.78c-0.34,2.98,0.26,5.83,1.79,8.55c1.46,2.41,2.81,5.24,4.06,8.5c1.24,3.28,1.86,6.69,1.86,10.25
	c0,9.48-3.16,17.39-9.48,23.71C112.18,244.34,104.28,247.5,94.81,247.5z M94.81,234.22c5.75,0,10.51-1.88,14.27-5.64
	c3.76-3.76,5.64-8.52,5.64-14.27c0-1.99-0.27-3.93-0.82-5.8c-0.55-1.88-1.38-3.7-2.5-5.48c-3.43-5.13-4.89-10.79-4.38-16.97
	c0.49-6.17,3.05-11.58,7.7-16.23l55.1-55.1c4.65-4.65,10.06-7.17,16.23-7.58c6.17-0.41,11.83,1.01,16.97,4.26
	c1.77,1.11,3.6,1.94,5.48,2.5c1.89,0.56,3.82,0.83,5.8,0.82c5.75,0,10.51-1.88,14.27-5.64c3.76-3.76,5.64-8.52,5.64-14.27
	c0-5.75-1.88-10.51-5.64-14.27c-3.76-3.76-8.52-5.64-14.27-5.64c-6.38,0-11.59-0.51-15.63-1.54c-4.04-1.04-7.46-2.96-10.26-5.76
	c-2.81-2.81-4.73-6.23-5.76-10.26c-1.03-4.05-1.54-9.25-1.54-15.63c0-5.75-1.88-10.51-5.64-14.27c-3.76-3.76-8.52-5.64-14.27-5.64
	c-5.75,0-10.51,1.88-14.27,5.64c-3.76,3.76-5.64,8.52-5.64,14.27c0,2.1,0.27,4.06,0.8,5.88c0.53,1.83,1.37,3.63,2.52,5.4
	c3.43,5.13,4.89,10.79,4.38,16.97c-0.49,6.17-3.05,11.58-7.7,16.23l-55.1,55.1c-4.65,4.65-10.06,7.17-16.23,7.58
	c-6.17,0.41-11.83-1.01-16.97-4.26c-1.77-1.11-3.59-1.93-5.47-2.48c-1.88-0.55-3.82-0.83-5.82-0.84c-5.75,0-10.51,1.88-14.27,5.64
	c-3.76,3.76-5.64,8.52-5.64,14.27c0,5.75,1.88,10.43,5.64,14.02c3.76,3.59,8.52,5.39,14.27,5.39c6.38,0,11.59,0.6,15.63,1.79
	c4.04,1.2,7.46,3.21,10.26,6.01c2.81,2.81,4.73,6.31,5.76,10.52c1.04,4.2,1.55,9.5,1.54,15.88c0,5.75,1.88,10.43,5.64,14.02
	C84.29,232.43,89.05,234.22,94.81,234.22z"/>
</svg>
