<svg width="30" height="31" viewBox="0 0 30 31" fill="none" xmlns="http://www.w3.org/2000/svg">
<path d="M10.8333 30.5C9.64333 30.5 8.65111 30.1033 7.85667 29.31C7.06333 28.5144 6.66667 27.5222 6.66667 26.3333C6.66667 25.8267 6.64278 25.4028 6.595 25.0617C6.54611 24.7194 6.42667 24.4528 6.23667 24.2617C6.04667 24.0706 5.78056 23.9411 5.43833 23.8733C5.09722 23.8044 4.67333 23.77 4.16667 23.77C2.97667 23.77 1.98444 23.3833 1.19 22.61C0.396667 21.8378 0 20.8567 0 19.6667C0 18.4767 0.396667 17.4844 1.19 16.69C1.98556 15.8967 2.97778 15.5 4.16667 15.5C4.61333 15.5 5.03667 15.5567 5.43667 15.67C5.83667 15.7833 6.17611 15.9533 6.455 16.18C6.755 16.4144 7.10222 16.5317 7.49667 16.5317C7.89111 16.5317 8.22778 16.3928 8.50667 16.115L15.4867 9.135C15.7644 8.85722 15.925 8.50444 15.9683 8.07667C16.0106 7.65 15.9144 7.27611 15.68 6.955C15.4744 6.65389 15.31 6.30889 15.1867 5.92C15.0622 5.53111 15 5.11333 15 4.66667C15 3.47667 15.3967 2.48444 16.19 1.69C16.9856 0.896667 17.9778 0.5 19.1667 0.5C20.3567 0.5 21.3489 0.896667 22.1433 1.69C22.9367 2.48556 23.3333 3.47778 23.3333 4.66667C23.3333 5.17333 23.3572 5.59722 23.405 5.93833C23.4539 6.28056 23.5733 6.54722 23.7633 6.73833C23.9533 6.92944 24.2194 7.04833 24.5617 7.095C24.9028 7.14278 25.3267 7.16667 25.8333 7.16667C27.0233 7.16667 28.0156 7.56333 28.81 8.35667C29.6033 9.15222 30 10.1444 30 11.3333C30 12.5233 29.6033 13.5156 28.81 14.31C28.0144 15.1033 27.0222 15.5 25.8333 15.5C25.3867 15.5 24.9689 15.4378 24.58 15.3133C24.1911 15.19 23.8461 15.0256 23.545 14.82C23.2239 14.6067 22.8606 14.5161 22.455 14.5483C22.0494 14.5806 21.7078 14.7356 21.43 15.0133L14.5133 21.93C14.2356 22.2078 14.075 22.5333 14.0317 22.9067C13.9894 23.2811 14.0644 23.6389 14.2567 23.98C14.44 24.2822 14.61 24.6378 14.7667 25.0467C14.9222 25.4578 15 25.8867 15 26.3333C15 27.5233 14.6033 28.5156 13.81 29.31C13.0144 30.1033 12.0222 30.5 10.8333 30.5ZM10.8333 28.8333C11.5556 28.8333 12.1528 28.5972 12.625 28.125C13.0972 27.6528 13.3333 27.0556 13.3333 26.3333C13.3333 26.0833 13.2989 25.8406 13.23 25.605C13.1611 25.3694 13.0567 25.14 12.9167 24.9167C12.4867 24.2722 12.3033 23.5622 12.3667 22.7867C12.4278 22.0122 12.75 21.3333 13.3333 20.75L20.25 13.8333C20.8333 13.25 21.5122 12.9328 22.2867 12.8817C23.0611 12.8306 23.7711 13.0089 24.4167 13.4167C24.6389 13.5556 24.8683 13.66 25.105 13.73C25.3417 13.8 25.5844 13.8344 25.8333 13.8333C26.5556 13.8333 27.1528 13.5972 27.625 13.125C28.0972 12.6528 28.3333 12.0556 28.3333 11.3333C28.3333 10.6111 28.0972 10.0139 27.625 9.54167C27.1528 9.06944 26.5556 8.83333 25.8333 8.83333C25.0322 8.83333 24.3783 8.76889 23.8717 8.64C23.365 8.51 22.9356 8.26889 22.5833 7.91667C22.2311 7.56444 21.99 7.135 21.86 6.62833C21.7311 6.12056 21.6667 5.46667 21.6667 4.66667C21.6667 3.94444 21.4306 3.34722 20.9583 2.875C20.4861 2.40278 19.8889 2.16667 19.1667 2.16667C18.4444 2.16667 17.8472 2.40278 17.375 2.875C16.9028 3.34722 16.6667 3.94444 16.6667 4.66667C16.6667 4.93 16.7 5.17611 16.7667 5.405C16.8333 5.635 16.9389 5.86111 17.0833 6.08333C17.5133 6.72778 17.6967 7.43778 17.6333 8.21333C17.5722 8.98778 17.25 9.66667 16.6667 10.25L9.75 17.1667C9.16667 17.75 8.48778 18.0672 7.71333 18.1183C6.93889 18.1694 6.22889 17.9911 5.58333 17.5833C5.36111 17.4444 5.13222 17.3406 4.89667 17.2717C4.66111 17.2028 4.41778 17.1678 4.16667 17.1667C3.44444 17.1667 2.84722 17.4028 2.375 17.875C1.90278 18.3472 1.66667 18.9444 1.66667 19.6667C1.66667 20.3889 1.90278 20.9756 2.375 21.4267C2.84722 21.8778 3.44444 22.1033 4.16667 22.1033C4.96778 22.1033 5.62167 22.1783 6.12833 22.3283C6.635 22.4794 7.06444 22.7311 7.41667 23.0833C7.76889 23.4356 8.01 23.8756 8.14 24.4033C8.27 24.9311 8.33444 25.5956 8.33333 26.3967C8.33333 27.1189 8.56944 27.7056 9.04167 28.1567C9.51389 28.6078 10.1111 28.8333 10.8333 28.8333Z" fill="#48BAAA"/>
</svg>
