<svg width="29" height="27" viewBox="0 0 29 27" fill="none" xmlns="http://www.w3.org/2000/svg">
<path fill-rule="evenodd" clip-rule="evenodd" d="M27.2558 0.410828C27.4121 0.567102 27.4998 0.779025 27.4998 0.999995C27.4998 1.22097 27.4121 1.43289 27.2558 1.58916L18.8933 9.95166C19.5658 9.95749 20.2633 9.94833 21.005 9.93833C21.6517 9.92999 22.3308 9.92166 23.055 9.92166C25.0417 9.92166 26.42 10.7017 27.2783 11.9433C28.0992 13.1308 28.3825 14.6467 28.4367 16.0433C28.4925 17.4558 28.3175 18.8517 28.1333 19.8808C28.0371 20.422 27.9203 20.9593 27.7833 21.4917L27.7775 21.51V26C27.7775 26.221 27.6897 26.433 27.5334 26.5893C27.3772 26.7455 27.1652 26.8333 26.9442 26.8333H23.3333C23.1123 26.8333 22.9004 26.7455 22.7441 26.5893C22.5878 26.433 22.5 26.221 22.5 26C22.5 25.2942 22.6067 24.7525 22.8083 24.3183C23.015 23.8717 23.2917 23.6083 23.4942 23.4325L23.6158 23.3258C22.1842 22.5017 21.3433 21.8117 20.6808 20.9317C20.3275 20.4633 20.0408 19.9617 19.7442 19.4058C19.6278 19.1864 19.5125 18.9664 19.3983 18.7458C19.2867 18.5308 19.17 18.3058 19.0425 18.0642L13.3333 19.9558V24.5617C13.3333 25.0933 13.2492 25.645 12.8992 26.0867C12.5375 26.5433 12.0217 26.72 11.5408 26.7992C11.0658 26.8767 10.4875 26.8792 9.85001 26.8692C9.71778 26.867 9.58556 26.8645 9.45335 26.8617L9.20335 26.8567C8.63567 26.8424 8.06786 26.8346 7.50001 26.8333C7.15834 26.8333 6.79668 26.6858 6.57668 26.3375C6.39418 26.0483 6.38584 25.7375 6.40251 25.54C6.43668 25.1317 6.61918 24.6942 6.83251 24.33C7.06756 23.9227 7.36989 23.5581 7.72668 23.2517C8.07085 22.9642 8.54501 22.6875 9.10418 22.6683V22.665C9.11008 22.5129 9.10506 22.3606 9.08918 22.2092C9.06235 21.9458 9.03012 21.6829 8.99251 21.4208C8.90751 20.7858 8.79751 19.97 8.76168 19.0892C8.00001 18.7625 7.39251 18.3975 6.93668 17.9367C6.35335 17.345 6.08501 16.66 5.98001 15.8842C5.88001 15.1508 5.92251 14.29 5.97834 13.3275L5.99501 13.0458C6.03418 12.3658 6.07835 11.6042 6.09918 10.735C5.19335 10.9633 4.19584 11 3.33334 11C1.65001 11 0.833345 9.57333 0.469178 8.59416C0.300153 8.13018 0.173524 7.65183 0.0908447 7.165C0.055906 6.96438 0.0281104 6.76259 0.00751104 6.55999L0.00417795 6.51999L0.00251101 6.50833V6.50249C-0.0110753 6.31864 0.0366874 6.13547 0.138321 5.98167C0.239955 5.82786 0.389723 5.71209 0.564178 5.65249L0.942511 5.52249C1.77525 5.23732 2.60747 4.95066 3.43918 4.6625C3.57834 4.23333 3.83584 3.82666 4.10751 3.495C4.53501 2.9725 5.12501 2.47416 5.79251 2.16166C6.45918 1.85083 7.28584 1.68916 8.10084 2.005C8.92668 2.325 9.54834 3.05999 9.94835 4.13666C10.59 5.86583 11.3067 7.05083 12.0908 7.87583C12.8658 8.69083 13.7375 9.18583 14.7492 9.48999C15.3673 9.66878 16.001 9.78848 16.6417 9.8475L26.0775 0.410828C26.2338 0.254603 26.4457 0.16684 26.6667 0.16684C26.8876 0.16684 27.0996 0.254603 27.2558 0.410828ZM14.2683 11.0858C14.565 11.1742 14.8683 11.2492 15.1767 11.3108L13.405 13.0833H7.66168C7.71168 12.2142 7.77168 11.1725 7.77751 9.93583C7.97335 9.77416 8.15251 9.58583 8.30834 9.36749C8.69335 8.82833 8.88918 8.16666 8.88918 7.39583H7.22251C7.22251 7.87583 7.10501 8.18499 6.95168 8.39916C6.79501 8.61916 6.55334 8.80333 6.20418 8.95083C5.47251 9.25916 4.44584 9.33333 3.33334 9.33333C2.79501 9.33333 2.36084 8.89666 2.03084 8.0125C1.91172 7.68477 1.81974 7.3478 1.75584 7.00499L2.39168 6.78666C3.07709 6.55225 3.76154 6.31503 4.44501 6.075C4.60741 6.01745 4.74797 5.91099 4.84736 5.77026C4.94676 5.62953 5.00008 5.46145 5.00001 5.28916C5.00001 5.21916 5.07918 4.93916 5.39751 4.54916C5.69085 4.19083 6.09001 3.86249 6.49918 3.67083C6.90918 3.47916 7.24501 3.45999 7.49918 3.55833C7.74001 3.65166 8.09085 3.92333 8.38585 4.71666C9.07918 6.58333 9.89751 7.98666 10.8833 9.02333C11.8775 10.0692 13.0083 10.7067 14.2683 11.085M12.2383 18.5625L12.9167 18.3375V14.75H7.58668C7.58334 15.1 7.59501 15.3975 7.63168 15.6608C7.70001 16.165 7.84835 16.4875 8.12335 16.7667C8.42751 17.075 8.94585 17.39 9.87751 17.7417C10.0359 17.8014 10.1723 17.908 10.2686 18.0472C10.3649 18.1863 10.4166 18.3516 10.4167 18.5208C10.4167 19.5042 10.5267 20.3108 10.625 21.0383C10.6742 21.3942 10.72 21.7317 10.7492 22.0617C10.7867 22.4883 10.8108 23.0367 10.6008 23.4925C10.4764 23.769 10.2648 23.997 9.99834 24.1417C9.74155 24.2742 9.45558 24.3401 9.16668 24.3333C9.12835 24.3333 9.00001 24.3592 8.79668 24.53C8.58742 24.7128 8.41 24.929 8.27168 25.17L8.27085 25.1725C8.62835 25.1767 8.95918 25.1842 9.26251 25.1908L9.87668 25.2025C10.5283 25.2133 10.965 25.2042 11.2717 25.1542C11.3672 25.1419 11.4605 25.1167 11.5492 25.0792C11.5621 25.0732 11.5744 25.066 11.5858 25.0575L11.5875 25.0567L11.5933 25.0517C11.595 25.0492 11.6667 24.9575 11.6667 24.5617V19.3542C11.6668 19.179 11.722 19.0083 11.8247 18.8663C11.9273 18.7244 12.072 18.6175 12.2383 18.5625ZM17.2758 11.5692L14.5833 14.2617V17.7867L19.1825 16.2617C19.3677 16.2003 19.5686 16.2059 19.7501 16.2775C19.9317 16.3491 20.0823 16.4821 20.1758 16.6533C20.4483 17.1517 20.6858 17.6083 20.8942 18.0083C21.01 18.2317 21.1167 18.4367 21.215 18.6217C21.5008 19.1583 21.74 19.5675 22.0117 19.9292C22.5367 20.625 23.2458 21.225 24.8467 22.1058C24.9459 22.1606 25.033 22.235 25.1025 22.3246C25.1719 22.4141 25.2224 22.5169 25.2508 22.6267C25.3758 23.1075 25.3983 23.5717 25.1892 24C25.03 24.325 24.75 24.5558 24.6258 24.6583L24.6142 24.6675C24.6047 24.6755 24.5952 24.6835 24.5858 24.6917C24.4608 24.8 24.3842 24.8808 24.3192 25.0192C24.2976 25.067 24.2792 25.1163 24.2642 25.1667H26.1108V21.58L23.41 15.705L24.9242 15.0092L26.6292 18.7175C26.7358 17.9175 26.8067 17.0092 26.7708 16.1092C26.7217 14.8442 26.4667 13.7 25.9075 12.8917C25.3858 12.1375 24.5417 11.5883 23.0558 11.5883C22.3842 11.5883 21.7225 11.5967 21.0783 11.605C20.1033 11.6175 19.17 11.6292 18.3133 11.61C17.9617 11.6017 17.6167 11.5892 17.2758 11.5683" fill="#279D8D"/>
</svg>
