<?xml version="1.0" encoding="utf-8"?>
<!-- Generator: Adobe Illustrator 28.0.0, SVG Export Plug-In . SVG Version: 6.00 Build 0)  -->
<svg version="1.1" id="Capa_1" xmlns="http://www.w3.org/2000/svg" xmlns:xlink="http://www.w3.org/1999/xlink" x="0px" y="0px"
	 viewBox="0 0 256 256" style="enable-background:new 0 0 256 256;" xml:space="preserve">
<style type="text/css">
	.st0{fill-rule:evenodd;clip-rule:evenodd;fill:#FFFFFF;}
</style>
<path class="st0" d="M235.63,19.73c1.29,1.29,2.02,3.04,2.02,4.87c0,1.83-0.72,3.58-2.02,4.87l-69.07,69.07
	c5.55,0.05,11.32-0.03,17.44-0.11c5.34-0.07,10.95-0.14,16.93-0.14c16.41,0,27.79,6.44,34.88,16.7c6.78,9.81,9.12,22.33,9.57,33.86
	c0.46,11.67-0.98,23.2-2.51,31.69c-0.79,4.47-1.76,8.91-2.89,13.3l-0.05,0.15v37.08c0,1.83-0.73,3.58-2.02,4.87
	c-1.29,1.29-3.04,2.02-4.87,2.02h-29.82c-1.83,0-3.58-0.73-4.87-2.02c-1.29-1.29-2.02-3.04-2.02-4.87c0-5.83,0.88-10.3,2.55-13.89
	c1.71-3.69,3.99-5.86,5.66-7.32l1-0.88c-11.82-6.81-18.77-12.51-24.24-19.77c-2.92-3.87-5.29-8.01-7.74-12.6
	c-0.96-1.81-1.91-3.63-2.86-5.45c-0.92-1.78-1.89-3.63-2.94-5.63l-47.15,15.62v38.04c0,4.39-0.69,8.95-3.59,12.6
	c-2.99,3.77-7.25,5.23-11.22,5.88c-3.92,0.64-8.7,0.66-13.96,0.58c-1.09-0.02-2.18-0.04-3.28-0.06l-2.06-0.04
	c-4.69-0.12-9.38-0.18-14.07-0.19c-2.82,0-5.81-1.22-7.63-4.09c-1.51-2.39-1.58-4.96-1.44-6.59c0.28-3.37,1.79-6.99,3.55-9.99
	c1.94-3.36,4.44-6.38,7.39-8.91c2.84-2.37,6.76-4.66,11.38-4.82v-0.03c0.05-1.26,0.01-2.51-0.12-3.76c-0.22-2.18-0.49-4.35-0.8-6.51
	c-0.7-5.24-1.61-11.98-1.91-19.26c-6.29-2.7-11.31-5.71-15.07-9.52c-4.82-4.89-7.03-10.54-7.9-16.95
	c-0.83-6.06-0.47-13.17-0.01-21.12l0.14-2.33c0.32-5.62,0.69-11.91,0.86-19.09c-7.48,1.89-15.72,2.19-22.84,2.19
	c-13.9,0-20.65-11.78-23.66-19.87c-1.4-3.83-2.44-7.78-3.12-11.8c-0.29-1.66-0.52-3.32-0.69-5l-0.03-0.33l-0.01-0.1v-0.05
	c-0.11-1.52,0.28-3.03,1.12-4.3c0.84-1.27,2.08-2.23,3.52-2.72l3.12-1.07c6.88-2.36,13.75-4.72,20.62-7.1
	c1.15-3.54,3.28-6.9,5.52-9.64c3.53-4.32,8.4-8.43,13.92-11.01c5.51-2.57,12.33-3.9,19.06-1.29c6.82,2.64,11.96,8.71,15.26,17.61
	c5.3,14.28,11.22,24.07,17.69,30.88c6.4,6.73,13.6,10.82,21.96,13.33c5.1,1.48,10.34,2.47,15.63,2.95l77.93-77.94
	c1.29-1.29,3.04-2.02,4.87-2.02C232.59,17.71,234.34,18.44,235.63,19.73z M128.37,107.89c2.45,0.73,4.96,1.35,7.5,1.86l-14.63,14.64
	H73.8c0.41-7.18,0.91-15.78,0.96-26c1.62-1.34,3.1-2.89,4.38-4.69c3.18-4.45,4.8-9.92,4.8-16.28H70.18c0,3.96-0.97,6.52-2.24,8.29
	c-1.29,1.82-3.29,3.34-6.17,4.56c-6.04,2.55-14.52,3.16-23.71,3.16c-4.45,0-8.03-3.61-10.76-10.91c-0.98-2.71-1.74-5.49-2.27-8.32
	l5.25-1.8c5.66-1.94,11.31-3.9,16.96-5.88c1.34-0.48,2.5-1.35,3.32-2.52c0.82-1.16,1.26-2.55,1.26-3.97c0-0.58,0.65-2.89,3.28-6.11
	c2.42-2.96,5.72-5.67,9.1-7.25c3.39-1.58,6.16-1.74,8.26-0.93c1.99,0.77,4.89,3.01,7.32,9.57c5.73,15.42,12.49,27.01,20.63,35.57
	C108.62,99.5,117.96,104.76,128.37,107.89 M111.6,169.65l5.6-1.86v-29.63H73.18c-0.03,2.89,0.07,5.35,0.37,7.52
	c0.56,4.16,1.79,6.83,4.06,9.13c2.51,2.55,6.79,5.15,14.49,8.05c1.31,0.49,2.43,1.37,3.23,2.52c0.8,1.15,1.22,2.51,1.22,3.91
	c0,8.12,0.91,14.78,1.72,20.79c0.41,2.94,0.78,5.73,1.03,8.45c0.31,3.52,0.51,8.05-1.23,11.82c-1.03,2.28-2.78,4.17-4.98,5.36
	c-2.12,1.09-4.48,1.64-6.87,1.58c-0.32,0-1.38,0.21-3.06,1.62c-1.73,1.51-3.19,3.3-4.34,5.29l-0.01,0.02
	c2.95,0.03,5.69,0.1,8.19,0.15l5.07,0.1c5.38,0.09,8.99,0.01,11.52-0.4c0.79-0.1,1.56-0.31,2.29-0.62c0.11-0.05,0.21-0.11,0.3-0.18
	l0.01-0.01l0.05-0.04c0.01-0.02,0.61-0.78,0.61-4.05v-43.01c0-1.45,0.46-2.86,1.3-4.03C109.03,170.98,110.23,170.1,111.6,169.65z
	 M153.21,111.89l-22.24,22.24v29.11l37.99-12.6c1.53-0.51,3.19-0.46,4.69,0.13c1.5,0.59,2.74,1.69,3.52,3.1
	c2.25,4.12,4.21,7.89,5.93,11.19c0.96,1.85,1.84,3.54,2.65,5.07c2.36,4.43,4.34,7.81,6.58,10.8c4.34,5.75,10.19,10.7,23.41,17.98
	c0.82,0.45,1.54,1.07,2.11,1.81c0.57,0.74,0.99,1.59,1.22,2.5c1.03,3.97,1.22,7.8-0.51,11.34c-1.31,2.68-3.63,4.59-4.65,5.44
	l-0.1,0.08c-0.08,0.07-0.16,0.13-0.23,0.2c-1.03,0.89-1.67,1.56-2.2,2.7c-0.18,0.39-0.33,0.8-0.45,1.22h15.25v-29.62l-22.31-48.52
	l12.51-5.75l14.08,30.63c0.88-6.61,1.47-14.11,1.17-21.54c-0.41-10.45-2.51-19.9-7.13-26.57c-4.31-6.23-11.28-10.77-23.55-10.77
	c-5.55,0-11.01,0.07-16.33,0.14c-8.05,0.1-15.76,0.2-22.84,0.04C158.87,112.16,156.02,112.05,153.21,111.89"/>
</svg>
