<svg width="27" height="26" viewBox="0 0 27 26" fill="none" xmlns="http://www.w3.org/2000/svg">
<path d="M3.50008 12.6667C2.56675 12.6667 1.77786 12.3445 1.13341 11.7C0.48897 11.0556 0.166748 10.2667 0.166748 9.33335C0.166748 8.40002 0.48897 7.61113 1.13341 6.96669C1.77786 6.32224 2.56675 6.00002 3.50008 6.00002C4.43341 6.00002 5.2223 6.32224 5.86675 6.96669C6.51119 7.61113 6.83341 8.40002 6.83341 9.33335C6.83341 10.2667 6.51119 11.0556 5.86675 11.7C5.2223 12.3445 4.43341 12.6667 3.50008 12.6667ZM9.50008 7.33335C8.56675 7.33335 7.77786 7.01113 7.13341 6.36669C6.48897 5.72224 6.16675 4.93335 6.16675 4.00002C6.16675 3.06669 6.48897 2.2778 7.13341 1.63335C7.77786 0.988909 8.56675 0.666687 9.50008 0.666687C10.4334 0.666687 11.2223 0.988909 11.8667 1.63335C12.5112 2.2778 12.8334 3.06669 12.8334 4.00002C12.8334 4.93335 12.5112 5.72224 11.8667 6.36669C11.2223 7.01113 10.4334 7.33335 9.50008 7.33335ZM17.5001 7.33335C16.5667 7.33335 15.7779 7.01113 15.1334 6.36669C14.489 5.72224 14.1667 4.93335 14.1667 4.00002C14.1667 3.06669 14.489 2.2778 15.1334 1.63335C15.7779 0.988909 16.5667 0.666687 17.5001 0.666687C18.4334 0.666687 19.2223 0.988909 19.8667 1.63335C20.5112 2.2778 20.8334 3.06669 20.8334 4.00002C20.8334 4.93335 20.5112 5.72224 19.8667 6.36669C19.2223 7.01113 18.4334 7.33335 17.5001 7.33335ZM23.5001 12.6667C22.5667 12.6667 21.7779 12.3445 21.1334 11.7C20.489 11.0556 20.1667 10.2667 20.1667 9.33335C20.1667 8.40002 20.489 7.61113 21.1334 6.96669C21.7779 6.32224 22.5667 6.00002 23.5001 6.00002C24.4334 6.00002 25.2223 6.32224 25.8667 6.96669C26.5112 7.61113 26.8334 8.40002 26.8334 9.33335C26.8334 10.2667 26.5112 11.0556 25.8667 11.7C25.2223 12.3445 24.4334 12.6667 23.5001 12.6667ZM6.36675 26C5.36675 26 4.52764 25.6169 3.84941 24.8507C3.17119 24.0845 2.83253 23.1787 2.83341 22.1334C2.83341 20.9778 3.22808 19.9667 4.01741 19.1C4.80675 18.2334 5.58986 17.3778 6.36675 16.5334C7.01119 15.8445 7.56675 15.0947 8.03341 14.284C8.50008 13.4734 9.05564 12.712 9.70008 12C10.189 11.4222 10.7556 10.9445 11.4001 10.5667C12.0445 10.1889 12.7445 10 13.5001 10C14.2556 10 14.9556 10.1778 15.6001 10.5334C16.2445 10.8889 16.8112 11.3556 17.3001 11.9334C17.9223 12.6445 18.4725 13.4111 18.9507 14.2334C19.429 15.0556 19.9899 15.8222 20.6334 16.5334C21.4112 17.3778 22.1943 18.2334 22.9827 19.1C23.7712 19.9667 24.1659 20.9778 24.1667 22.1334C24.1667 23.1778 23.8276 24.0836 23.1494 24.8507C22.4712 25.6178 21.6325 26.0009 20.6334 26C19.4334 26 18.2445 25.9 17.0667 25.7C15.889 25.5 14.7001 25.4 13.5001 25.4C12.3001 25.4 11.1112 25.5 9.93341 25.7C8.75564 25.9 7.56675 26 6.36675 26Z" fill="#EAF8F6"/>
</svg>
