<?xml version="1.0" encoding="utf-8"?>
<!-- Generator: Adobe Illustrator 28.0.0, SVG Export Plug-In . SVG Version: 6.00 Build 0)  -->
<svg version="1.1" id="Capa_1" xmlns="http://www.w3.org/2000/svg" xmlns:xlink="http://www.w3.org/1999/xlink" x="0px" y="0px"
	 viewBox="0 0 256 256" style="enable-background:new 0 0 256 256;" xml:space="preserve">
<style type="text/css">
	.st0{fill:#C9C9C9;}
</style>
<g>
	<path class="st0" d="M165.69,226.54c-0.56,0-1.12-0.04-1.68,0.01c-2.91,0.23-5.7-0.39-8.48-1.1c-3.34-0.86-6.66-1.77-10-2.6
		c-3.6-0.9-7.21-1.77-10.83-2.58c-4.57-1.02-9.23-1.16-13.86-0.8c-3.01,0.24-5.99,0.96-8.95,1.61c-3.15,0.68-6.26,1.55-9.4,2.3
		c-3.92,0.94-7.83,1.89-11.77,2.75c-1.22,0.27-2.5,0.34-3.76,0.39c-1.48,0.06-2.97,0.01-4.45,0.02c-6.64,0.05-12.59-1.97-17.93-5.89
		c-6.61-4.85-10.84-11.29-12.9-19.18c-1.28-4.91-1.37-9.87-0.67-14.89c1.17-8.44,4.72-15.83,9.61-22.68
		c2.73-3.82,5.98-7.14,9.49-10.24c5.22-4.61,9.75-9.82,13.79-15.48c3.64-5.1,7.25-10.22,10.89-15.31
		c3.86-5.4,8.35-10.18,13.94-13.82c4.63-3.01,9.7-4.62,15.26-4.61c3.66,0.01,7.29,0.25,10.86,1.07c5.47,1.25,10.35,3.69,14.64,7.32
		c3.18,2.69,5.83,5.86,8.13,9.3c3.03,4.54,5.97,9.15,8.96,13.71c4.63,7.07,10.07,13.42,16.43,19.02
		c6.06,5.34,10.94,11.65,14.33,19.01c2.61,5.66,4.32,11.59,4.3,17.91c-0.03,7.63-2.01,14.67-6.63,20.78
		c-4.4,5.82-10.11,9.97-17.13,12.13c-1.84,0.57-3.78,0.81-5.68,1.21c-0.17,0.03-0.41,0.02-0.48,0.12c-0.53,0.75-1.3,0.5-1.99,0.51
		C168.37,226.55,167.03,226.54,165.69,226.54z"/>
	<path class="st0" d="M189.59,62.88c0.03,5.39-0.88,10.62-2.64,15.72c-2.25,6.52-5.58,12.38-10.48,17.28
		c-3.17,3.17-6.83,5.67-10.96,7.45c-0.2,0.09-0.41,0.17-0.63,0.18c-2.64,0.23-5.27,0.55-7.91,0.66c-7.27,0.28-13.05-2.86-17.87-8.04
		c-3.65-3.93-5.69-8.68-6.94-13.83c-0.86-3.53-1.34-7.1-1.29-10.74c0.11-7.85,1.84-15.28,5.45-22.28
		c3.17-6.14,7.51-11.24,13.26-15.11c3.09-2.08,6.47-3.53,10.15-4c9.13-1.15,16.76,1.7,22.56,8.99c2.97,3.74,4.75,8.02,5.95,12.61
		C189.18,55.43,189.58,59.12,189.59,62.88z"/>
	<path class="st0" d="M90.51,29.75c6.19,0.14,11.56,2.41,16.3,6.31c6.04,4.97,9.93,11.34,12.34,18.7
		c2.24,6.83,2.66,13.83,1.93,20.95c-0.48,4.7-1.75,9.14-4.07,13.26c-2.56,4.55-5.98,8.27-10.53,10.95
		c-2.07,1.22-4.16,2.27-6.54,2.72c-4.67,0.87-9.2,0.49-13.53-1.54c-6.3-2.95-11.12-7.56-14.79-13.41c-3.19-5.08-5.2-10.6-6.17-16.52
		c-0.63-3.8-1.03-7.62-0.75-11.46c0.55-7.72,2.67-14.89,7.64-21c3.04-3.73,6.72-6.59,11.42-7.94C85.96,30.13,88.2,29.71,90.51,29.75
		z"/>
	<path class="st0" d="M79.5,121.69c-0.11,6.47-1.64,11.94-5.2,16.72c-3.32,4.46-7.7,7.39-13.19,8.44c-3.87,0.74-7.7,0.45-11.53-0.67
		c-4.54-1.32-8.7-3.3-12.39-6.24c-5.38-4.3-9.46-9.6-12.22-15.9c-1.99-4.55-3.11-9.32-3.3-14.31c-0.21-5.75,0.92-11.16,3.99-16.06
		c2.92-4.65,7.07-7.69,12.34-9.28c4.35-1.31,8.7-1.2,13.03-0.15c5.21,1.26,9.84,3.72,13.88,7.24c5.33,4.64,9.35,10.23,11.9,16.84
		c1.18,3.04,1.97,6.19,2.3,9.45C79.28,119.25,79.41,120.75,79.5,121.69z"/>
	<path class="st0" d="M176.65,123c0.25-9.81,3.03-17.9,8.53-25.05c2.91-3.79,6.27-7.08,10.35-9.62c4.23-2.63,8.77-4.3,13.76-4.77
		c5.11-0.49,9.86,0.53,14.23,3.2c4.39,2.68,7.42,6.51,9.18,11.32c1.28,3.47,1.98,7.07,1.86,10.77c-0.15,4.46-0.98,8.8-2.52,13.02
		c-2.21,6.03-5.69,11.19-10.26,15.62c-4.14,4.02-8.95,6.89-14.56,8.48c-2.96,0.84-5.89,1.38-8.96,1.24
		c-5.38-0.25-9.96-2.29-13.85-5.98c-3.96-3.75-6.17-8.42-7.17-13.69C176.89,125.78,176.77,123.98,176.65,123z"/>
</g>
</svg>
