<svg width="34" height="34" viewBox="0 0 34 34" fill="none" xmlns="http://www.w3.org/2000/svg">
<path d="M18.875 25.125C18.875 25.4958 18.765 25.8584 18.559 26.1667C18.353 26.475 18.0601 26.7154 17.7175 26.8573C17.3749 26.9992 16.9979 27.0363 16.6342 26.964C16.2705 26.8916 15.9364 26.713 15.6742 26.4508C15.412 26.1886 15.2334 25.8545 15.161 25.4908C15.0887 25.1271 15.1258 24.7501 15.2677 24.4075C15.4096 24.0649 15.65 23.772 15.9583 23.566C16.2667 23.36 16.6292 23.25 17 23.25C17.4973 23.25 17.9742 23.4475 18.3258 23.7992C18.6775 24.1508 18.875 24.6277 18.875 25.125ZM17 8.25C13.5531 8.25 10.75 10.7734 10.75 13.875V14.5C10.75 14.8315 10.8817 15.1495 11.1161 15.3839C11.3505 15.6183 11.6685 15.75 12 15.75C12.3315 15.75 12.6495 15.6183 12.8839 15.3839C13.1183 15.1495 13.25 14.8315 13.25 14.5V13.875C13.25 12.1562 14.9328 10.75 17 10.75C19.0672 10.75 20.75 12.1562 20.75 13.875C20.75 15.5938 19.0672 17 17 17C16.6685 17 16.3505 17.1317 16.1161 17.3661C15.8817 17.6005 15.75 17.9185 15.75 18.25V19.5C15.75 19.8315 15.8817 20.1495 16.1161 20.3839C16.3505 20.6183 16.6685 20.75 17 20.75C17.3315 20.75 17.6495 20.6183 17.8839 20.3839C18.1183 20.1495 18.25 19.8315 18.25 19.5V19.3875C21.1 18.8641 23.25 16.5906 23.25 13.875C23.25 10.7734 20.4469 8.25 17 8.25ZM33.25 17C33.25 20.2139 32.297 23.3557 30.5114 26.028C28.7258 28.7003 26.1879 30.7831 23.2186 32.013C20.2493 33.243 16.982 33.5648 13.8298 32.9378C10.6776 32.3107 7.78213 30.7631 5.50952 28.4905C3.23692 26.2179 1.68926 23.3224 1.06225 20.1702C0.435237 17.018 0.757041 13.7507 1.98696 10.7814C3.21689 7.81209 5.29969 5.27419 7.97199 3.48862C10.6443 1.70305 13.7861 0.75 17 0.75C21.3084 0.75455 25.439 2.46806 28.4855 5.51454C31.5319 8.56102 33.2455 12.6916 33.25 17ZM30.75 17C30.75 14.2805 29.9436 11.6221 28.4327 9.36091C26.9218 7.09973 24.7744 5.33736 22.2619 4.29666C19.7494 3.25595 16.9848 2.98366 14.3175 3.5142C11.6503 4.04475 9.20026 5.35431 7.27729 7.27728C5.35432 9.20025 4.04476 11.6503 3.51421 14.3175C2.98366 16.9847 3.25596 19.7494 4.29666 22.2619C5.33737 24.7744 7.09974 26.9218 9.36092 28.4327C11.6221 29.9436 14.2805 30.75 17 30.75C20.6455 30.7459 24.1404 29.2959 26.7182 26.7182C29.2959 24.1404 30.7459 20.6455 30.75 17Z" fill="white"/>
</svg>
