<svg width="111" height="110" viewBox="0 0 111 110" fill="none" xmlns="http://www.w3.org/2000/svg">
<path d="M25.75 18.2L23.8 16.25C22.8698 15.3255 21.6115 14.8065 20.3 14.8065C18.9885 14.8065 17.7302 15.3255 16.8 16.25L16.75 16.3C16.2868 16.7576 15.919 17.3026 15.668 17.9034C15.417 18.5042 15.2878 19.1489 15.2878 19.8C15.2878 20.4511 15.417 21.0958 15.668 21.6966C15.919 22.2974 16.2868 22.8424 16.75 23.3L18.7 25.25C20.65 27.2 23.75 27.2 25.7 25.25L25.75 25.2C26.2132 24.7424 26.581 24.1974 26.832 23.5966C27.083 22.9958 27.2122 22.3511 27.2122 21.7C27.2122 21.0489 27.083 20.4042 26.832 19.8034C26.581 19.2026 26.2132 18.6576 25.75 18.2ZM10.55 50H5.45C2.7 50 0.5 52.2 0.5 54.95V55C0.5 57.75 2.7 59.95 5.45 59.95H10.5C13.3 60 15.5 57.8 15.5 55.05V55C15.5 52.2 13.3 50 10.55 50ZM55.55 0.25H55.5C52.7 0.25 50.5 2.45 50.5 5.2V10C50.5 12.75 52.7 14.95 55.45 14.95H55.5C58.3 15 60.5 12.8 60.5 10.05V5.2C60.5 2.45 58.3 0.25 55.55 0.25ZM94.25 16.3C92.3 14.35 89.15 14.35 87.2 16.25L85.25 18.2C84.7868 18.6576 84.419 19.2026 84.1681 19.8034C83.9171 20.4042 83.7878 21.0489 83.7878 21.7C83.7878 22.3511 83.9171 22.9958 84.1681 23.5966C84.419 24.1974 84.7868 24.7424 85.25 25.2L85.3 25.25C87.25 27.2 90.4 27.2 92.3 25.25L94.25 23.3C94.7132 22.8424 95.081 22.2974 95.332 21.6966C95.583 21.0958 95.7122 20.4511 95.7122 19.8C95.7122 19.1489 95.583 18.5042 95.332 17.9034C95.081 17.3026 94.7132 16.7576 94.25 16.3ZM85.2 91.8L87.15 93.75C88.0849 94.6849 89.3529 95.2101 90.675 95.2101C91.9971 95.2101 93.2651 94.6849 94.2 93.75C95.1349 92.8151 95.6601 91.5471 95.6601 90.225C95.6601 88.9029 95.1349 87.6349 94.2 86.7L92.25 84.75C91.3198 83.8255 90.0615 83.3066 88.75 83.3066C87.4385 83.3066 86.1802 83.8255 85.25 84.75C83.25 86.75 83.25 89.85 85.2 91.8ZM95.5 54.95V55C95.5 57.75 97.7 59.95 100.45 59.95H105.5C108.25 59.95 110.45 57.75 110.45 55V54.95C110.45 52.2 108.25 50 105.5 50H100.45C97.7 50 95.5 52.2 95.5 54.95ZM55.5 25C38.95 25 25.5 38.45 25.5 55C25.5 71.55 38.95 85 55.5 85C72.05 85 85.5 71.55 85.5 55C85.5 38.45 72.05 25 55.5 25ZM55.45 109.75H55.5C58.25 109.75 60.45 107.55 60.45 104.8V100C60.45 97.25 58.25 95.05 55.5 95.05H55.45C52.7 95.05 50.5 97.25 50.5 100V104.8C50.5 107.55 52.7 109.75 55.45 109.75ZM16.75 93.7C18.7 95.65 21.85 95.65 23.8 93.7L25.75 91.75C26.6745 90.8198 27.1935 89.5615 27.1935 88.25C27.1935 86.9385 26.6745 85.6802 25.75 84.75L25.7 84.7C25.2374 84.2365 24.688 83.8688 24.0831 83.6179C23.4783 83.3669 22.8298 83.2378 22.175 83.2378C21.5202 83.2378 20.8717 83.3669 20.2669 83.6179C19.662 83.8688 19.1126 84.2365 18.65 84.7L16.7 86.65C14.8 88.65 14.8 91.75 16.75 93.7Z" fill="#FACC15"/>
</svg>
