<svg width="36" height="32" viewBox="0 0 36 32" fill="none" xmlns="http://www.w3.org/2000/svg">
<path d="M33.6522 2.98H28.1739V1.12C28.1739 0.955566 28.0915 0.797866 27.9447 0.681594C27.7979 0.565321 27.5989 0.5 27.3913 0.5C27.1837 0.5 26.9847 0.565321 26.8379 0.681594C26.6911 0.797866 26.6087 0.955566 26.6087 1.12V2.98H9.3913V1.12C9.3913 0.955566 9.30885 0.797866 9.16208 0.681594C9.01532 0.565321 8.81626 0.5 8.6087 0.5C8.40113 0.5 8.20208 0.565321 8.05531 0.681594C7.90854 0.797866 7.82609 0.955566 7.82609 1.12V2.98H2.34783C1.72514 2.98 1.12796 3.17596 0.687662 3.52478C0.247359 3.8736 0 4.3467 0 4.84V29.64C0 30.1333 0.247359 30.6064 0.687662 30.9552C1.12796 31.304 1.72514 31.5 2.34783 31.5H33.6522C34.2749 31.5 34.872 31.304 35.3123 30.9552C35.7526 30.6064 36 30.1333 36 29.64V4.84C36 4.3467 35.7526 3.8736 35.3123 3.52478C34.872 3.17596 34.2749 2.98 33.6522 2.98ZM2.34783 4.22H7.82609V6.08C7.82609 6.24443 7.90854 6.40213 8.05531 6.51841C8.20208 6.63468 8.40113 6.7 8.6087 6.7C8.81626 6.7 9.01532 6.63468 9.16208 6.51841C9.30885 6.40213 9.3913 6.24443 9.3913 6.08V4.22H26.6087V6.08C26.6087 6.24443 26.6911 6.40213 26.8379 6.51841C26.9847 6.63468 27.1837 6.7 27.3913 6.7C27.5989 6.7 27.7979 6.63468 27.9447 6.51841C28.0915 6.40213 28.1739 6.24443 28.1739 6.08V4.22H33.6522C33.8597 4.22 34.0588 4.28532 34.2056 4.40159C34.3523 4.51787 34.4348 4.67557 34.4348 4.84V10.42H1.56522V4.84C1.56522 4.67557 1.64767 4.51787 1.79444 4.40159C1.94121 4.28532 2.14027 4.22 2.34783 4.22ZM33.6522 30.26H2.34783C2.14027 30.26 1.94121 30.1947 1.79444 30.0784C1.64767 29.9621 1.56522 29.8044 1.56522 29.64V11.66H34.4348V29.64C34.4348 29.8044 34.3523 29.9621 34.2056 30.0784C34.0588 30.1947 33.8597 30.26 33.6522 30.26ZM14.087 16V25.92C14.087 26.0844 14.0045 26.2421 13.8577 26.3584C13.711 26.4747 13.5119 26.54 13.3043 26.54C13.0968 26.54 12.8977 26.4747 12.751 26.3584C12.6042 26.2421 12.5217 26.0844 12.5217 25.92V17.0028L10.5241 17.7949C10.3384 17.8685 10.1233 17.8806 9.92627 17.8286C9.72924 17.7765 9.56636 17.6646 9.47348 17.5174C9.38059 17.3703 9.36531 17.1999 9.43099 17.0438C9.49667 16.8877 9.63793 16.7587 9.8237 16.6851L12.9541 15.4451C13.0735 15.3978 13.2061 15.3754 13.3395 15.3802C13.4728 15.3849 13.6024 15.4166 13.7159 15.4722C13.8294 15.5278 13.9231 15.6055 13.9881 15.6979C14.053 15.7903 14.0871 15.8943 14.087 16ZM25.8261 20.34L21.1304 25.3H25.8261C26.0336 25.3 26.2327 25.3653 26.3795 25.4816C26.5262 25.5979 26.6087 25.7556 26.6087 25.92C26.6087 26.0844 26.5262 26.2421 26.3795 26.3584C26.2327 26.4747 26.0336 26.54 25.8261 26.54H19.5652C19.4199 26.54 19.2774 26.5079 19.1538 26.4474C19.0301 26.3869 18.9302 26.3003 18.8652 26.1973C18.8002 26.0943 18.7727 25.979 18.7858 25.8643C18.7988 25.7496 18.8519 25.6401 18.9391 25.548L24.57 19.6006C24.879 19.2785 25.0454 18.8846 25.0435 18.48C25.0441 18.0702 24.8738 17.6717 24.559 17.3464C24.2443 17.0211 23.8028 16.7873 23.3031 16.6813C22.8034 16.5752 22.2735 16.6029 21.7957 16.76C21.3179 16.9171 20.919 17.1948 20.6609 17.55C20.5526 17.685 20.3827 17.7815 20.1866 17.8196C19.9905 17.8576 19.7835 17.8342 19.6088 17.7542C19.434 17.6741 19.305 17.5437 19.2488 17.3901C19.1926 17.2366 19.2134 17.0717 19.307 16.93C19.7377 16.339 20.4025 15.8772 21.1983 15.6161C21.9941 15.355 22.8764 15.3092 23.7084 15.4858C24.5404 15.6624 25.2757 16.0516 25.8 16.5929C26.3244 17.1343 26.6087 17.7976 26.6087 18.48C26.6117 19.1511 26.3368 19.8045 25.8261 20.34Z" fill="#48BAAA"/>
</svg>
