<svg width="34" height="27" viewBox="0 0 34 27" fill="none" xmlns="http://www.w3.org/2000/svg">
<path d="M17 4.93202L16.178 5.61468C16.2832 5.71481 16.4105 5.79463 16.5519 5.84921C16.6933 5.90379 16.8458 5.93195 17 5.93195C17.1542 5.93195 17.3067 5.90379 17.4481 5.84921C17.5895 5.79463 17.7168 5.71481 17.822 5.61468L17 4.93202ZM13.151 22.5613C10.976 20.9933 8.438 18.936 6.452 16.684C4.4435 14.408 3.125 12.0707 3.125 9.92402H0.875C0.875 12.7467 2.57 15.5267 4.6805 17.9187C6.8135 20.336 9.4955 22.5 11.7335 24.1147L13.151 22.5613ZM3.125 9.92402C3.125 6.05068 5.027 3.65735 7.379 2.83735C9.7265 2.02002 13.01 2.60402 16.178 5.61468L17.822 4.24935C14.24 0.844016 10.0235 -0.230651 6.5585 0.974682C3.098 2.18002 0.875 5.48935 0.875 9.92402H3.125ZM22.265 24.1133C24.5045 22.4987 27.1865 20.3347 29.3195 17.9173C31.43 15.5253 33.125 12.7453 33.125 9.92135H30.875C30.875 12.0707 29.555 14.4067 27.548 16.6827C25.562 18.9347 23.024 20.992 20.849 22.56L22.265 24.1133ZM33.125 9.92135C33.125 5.48802 30.902 2.17868 27.44 0.974682C23.975 -0.231984 19.76 0.841349 16.178 4.24802L17.822 5.61468C20.99 2.60402 24.2735 2.01868 26.621 2.83602C28.973 3.65468 30.875 6.04935 30.875 9.92135H33.125ZM11.7335 24.1147C13.6385 25.4907 14.963 26.5 17 26.5V24.5C15.9155 24.5 15.2405 24.068 13.151 22.5613L11.7335 24.1147ZM20.849 22.56C18.7595 24.0667 18.0845 24.5 17 24.5V26.5C19.037 26.5 20.3615 25.4907 22.2665 24.1147L20.849 22.56Z" fill="#48BAAA"/>
</svg>
