<svg width="36" height="36" viewBox="0 0 36 36" fill="none" xmlns="http://www.w3.org/2000/svg">
<path d="M26.6957 9.6H23.6522V8.4C23.6522 8.29391 23.6064 8.19217 23.5248 8.11716C23.4433 8.04214 23.3327 8 23.2174 8C23.1021 8 22.9915 8.04214 22.91 8.11716C22.8284 8.19217 22.7826 8.29391 22.7826 8.4V9.6H13.2174V8.4C13.2174 8.29391 13.1716 8.19217 13.09 8.11716C13.0085 8.04214 12.8979 8 12.7826 8C12.6673 8 12.5567 8.04214 12.4752 8.11716C12.3936 8.19217 12.3478 8.29391 12.3478 8.4V9.6H9.30435C8.95841 9.6 8.62665 9.72643 8.38203 9.95147C8.13742 10.1765 8 10.4817 8 10.8V26.8C8 27.1183 8.13742 27.4235 8.38203 27.6485C8.62665 27.8736 8.95841 28 9.30435 28H26.6957C27.0416 28 27.3734 27.8736 27.618 27.6485C27.8626 27.4235 28 27.1183 28 26.8V10.8C28 10.4817 27.8626 10.1765 27.618 9.95147C27.3734 9.72643 27.0416 9.6 26.6957 9.6ZM9.30435 10.4H12.3478V11.6C12.3478 11.7061 12.3936 11.8078 12.4752 11.8828C12.5567 11.9579 12.6673 12 12.7826 12C12.8979 12 13.0085 11.9579 13.09 11.8828C13.1716 11.8078 13.2174 11.7061 13.2174 11.6V10.4H22.7826V11.6C22.7826 11.7061 22.8284 11.8078 22.91 11.8828C22.9915 11.9579 23.1021 12 23.2174 12C23.3327 12 23.4433 11.9579 23.5248 11.8828C23.6064 11.8078 23.6522 11.7061 23.6522 11.6V10.4H26.6957C26.811 10.4 26.9216 10.4421 27.0031 10.5172C27.0846 10.5922 27.1304 10.6939 27.1304 10.8V14.4H8.86957V10.8C8.86957 10.6939 8.91537 10.5922 8.99691 10.5172C9.07845 10.4421 9.18904 10.4 9.30435 10.4ZM26.6957 27.2H9.30435C9.18904 27.2 9.07845 27.1579 8.99691 27.0828C8.91537 27.0078 8.86957 26.9061 8.86957 26.8V15.2H27.1304V26.8C27.1304 26.9061 27.0846 27.0078 27.0031 27.0828C26.9216 27.1579 26.811 27.2 26.6957 27.2ZM15.8261 18V24.4C15.8261 24.5061 15.7803 24.6078 15.6987 24.6828C15.6172 24.7579 15.5066 24.8 15.3913 24.8C15.276 24.8 15.1654 24.7579 15.0839 24.6828C15.0023 24.6078 14.9565 24.5061 14.9565 24.4V18.647L13.8467 19.158C13.7435 19.2055 13.6241 19.2133 13.5146 19.1797C13.4051 19.1461 13.3146 19.0739 13.263 18.979C13.2114 18.8841 13.203 18.7741 13.2394 18.6734C13.2759 18.5727 13.3544 18.4895 13.4576 18.442L15.1967 17.642C15.263 17.6115 15.3367 17.5971 15.4108 17.6001C15.4849 17.6032 15.5569 17.6236 15.62 17.6595C15.683 17.6954 15.7351 17.7455 15.7711 17.8051C15.8072 17.8647 15.8261 17.9318 15.8261 18ZM22.3478 20.8L19.7391 24H22.3478C22.4631 24 22.5737 24.0421 22.6553 24.1172C22.7368 24.1922 22.7826 24.2939 22.7826 24.4C22.7826 24.5061 22.7368 24.6078 22.6553 24.6828C22.5737 24.7579 22.4631 24.8 22.3478 24.8H18.8696C18.7888 24.8 18.7097 24.7793 18.641 24.7403C18.5723 24.7012 18.5168 24.6453 18.4807 24.5789C18.4446 24.5124 18.4293 24.4381 18.4365 24.3641C18.4438 24.2901 18.4733 24.2194 18.5217 24.16L21.65 20.323C21.8216 20.1151 21.9141 19.861 21.913 19.6C21.9134 19.3356 21.8188 19.0785 21.6439 18.8686C21.4691 18.6588 21.2238 18.5079 20.9462 18.4395C20.6686 18.3711 20.3742 18.389 20.1087 18.4903C19.8433 18.5917 19.6216 18.7708 19.4783 19C19.4181 19.0871 19.3237 19.1494 19.2148 19.1739C19.1059 19.1985 18.9908 19.1833 18.8938 19.1317C18.7967 19.0801 18.725 18.9959 18.6938 18.8969C18.6625 18.7978 18.6741 18.6914 18.7261 18.6C18.9654 18.2187 19.3347 17.9208 19.7768 17.7523C20.2189 17.5838 20.7091 17.5543 21.1714 17.6682C21.6336 17.7822 22.042 18.0333 22.3333 18.3825C22.6247 18.7318 22.7826 19.1597 22.7826 19.6C22.7843 20.033 22.6315 20.4545 22.3478 20.8Z" fill="black"/>
</svg>
