<svg width="36" height="36" viewBox="0 0 36 36" fill="none" xmlns="http://www.w3.org/2000/svg">
<path d="M26.125 11.125H9.875C9.5293 11.125 9.25 11.4043 9.25 11.75V24.25C9.25 24.5957 9.5293 24.875 9.875 24.875H26.125C26.4707 24.875 26.75 24.5957 26.75 24.25V11.75C26.75 11.4043 26.4707 11.125 26.125 11.125ZM24.5469 13.252L18.3848 18.0469C18.2324 18.166 18.0195 18.166 17.8672 18.0469L11.7031 13.252C11.6799 13.234 11.6628 13.2093 11.6544 13.1812C11.6459 13.1531 11.6465 13.123 11.6559 13.0952C11.6654 13.0674 11.6834 13.0433 11.7072 13.0263C11.7311 13.0092 11.7597 13 11.7891 13H24.4609C24.4903 13 24.5189 13.0092 24.5428 13.0263C24.5667 13.0433 24.5846 13.0674 24.5941 13.0952C24.6035 13.123 24.6041 13.1531 24.5956 13.1812C24.5872 13.2093 24.5701 13.234 24.5469 13.252Z" fill="black"/>
</svg>
