<svg width="36" height="36" viewBox="0 0 36 36" fill="none" xmlns="http://www.w3.org/2000/svg">
<path d="M10.9882 10.9882C10.6756 11.3007 10.5 11.7246 10.5 12.1667V13C10.5 19.9033 16.0967 25.5 23 25.5H23.8333C24.2754 25.5 24.6993 25.3244 25.0118 25.0118C25.3244 24.6993 25.5 24.2754 25.5 23.8333V21.1008C25.5 20.9259 25.445 20.7553 25.3427 20.6134C25.2404 20.4714 25.096 20.3653 24.93 20.31L21.1858 19.0617C20.9956 18.9984 20.7888 19.0059 20.6036 19.0827C20.4184 19.1596 20.2671 19.3006 20.1775 19.48L19.2358 21.3608C17.1954 20.4389 15.5611 18.8046 14.6392 16.7642L16.52 15.8225C16.6994 15.7329 16.8404 15.5816 16.9173 15.3964C16.9941 15.2112 17.0016 15.0044 16.9383 14.8142L15.69 11.07C15.6348 10.9041 15.5287 10.7598 15.387 10.6575C15.2452 10.5552 15.0748 10.5001 14.9 10.5H12.1667C11.7246 10.5 11.3007 10.6756 10.9882 10.9882Z" stroke="#3F3F46" stroke-width="2" stroke-linecap="round" stroke-linejoin="round"/>
</svg>
