<svg width="36" height="36" viewBox="0 0 36 36" fill="none" xmlns="http://www.w3.org/2000/svg">
<path d="M23.8749 12.0916C23.1109 11.3198 22.2009 10.7079 21.198 10.2916C20.195 9.87525 19.1192 9.66277 18.0333 9.66655C13.4833 9.66655 9.77492 13.3749 9.77492 17.9249C9.77492 19.3832 10.1583 20.7999 10.8749 22.0499L9.70825 26.3332L14.0833 25.1832C15.2916 25.8416 16.6499 26.1916 18.0333 26.1916C22.5833 26.1916 26.2916 22.4832 26.2916 17.9332C26.2916 15.7249 25.4333 13.6499 23.8749 12.0916ZM18.0333 24.7916C16.7999 24.7916 15.5916 24.4582 14.5333 23.8332L14.2833 23.6832L11.6833 24.3666L12.3749 21.8332L12.2083 21.5749C11.523 20.4807 11.1592 19.2159 11.1583 17.9249C11.1583 14.1416 14.2416 11.0582 18.0249 11.0582C19.8583 11.0582 21.5833 11.7749 22.8749 13.0749C23.5145 13.7115 24.0213 14.4688 24.3661 15.3027C24.7108 16.1367 24.8866 17.0308 24.8833 17.9332C24.8999 21.7166 21.8166 24.7916 18.0333 24.7916ZM21.7999 19.6582C21.5916 19.5582 20.5749 19.0582 20.3916 18.9832C20.1999 18.9166 20.0666 18.8832 19.9249 19.0832C19.7833 19.2916 19.3916 19.7582 19.2749 19.8916C19.1583 20.0332 19.0333 20.0499 18.8249 19.9416C18.6166 19.8416 17.9499 19.6166 17.1666 18.9166C16.5499 18.3666 16.1416 17.6916 16.0166 17.4832C15.8999 17.2749 15.9999 17.1666 16.1083 17.0582C16.1999 16.9666 16.3166 16.8166 16.4166 16.6999C16.5166 16.5832 16.5583 16.4916 16.6249 16.3582C16.6916 16.2166 16.6583 16.0999 16.6083 15.9999C16.5583 15.8999 16.1416 14.8832 15.9749 14.4666C15.8083 14.0666 15.6333 14.1166 15.5083 14.1082H15.1083C14.9666 14.1082 14.7499 14.1582 14.5583 14.3666C14.3749 14.5749 13.8416 15.0749 13.8416 16.0916C13.8416 17.1082 14.5833 18.0916 14.6833 18.2249C14.7833 18.3666 16.1416 20.4499 18.2083 21.3416C18.6999 21.5582 19.0833 21.6832 19.3833 21.7749C19.8749 21.9332 20.3249 21.9082 20.6833 21.8582C21.0833 21.7999 21.9083 21.3582 22.0749 20.8749C22.2499 20.3916 22.2499 19.9832 22.1916 19.8916C22.1333 19.7999 22.0083 19.7582 21.7999 19.6582Z" fill="black"/>
</svg>
